<svg xmlns="http://www.w3.org/2000/svg" width="24" height="24" viewBox="0 0 24 24"><defs><style>.a{fill:#00b1ff;opacity:0;}.b{fill-rule:evenodd;}</style></defs><g transform="translate(6032 18318)"><rect class="a" width="24" height="24" transform="translate(-6032 -18318)"/><g transform="translate(-6030 -18316)"><path class="b" d="M6.979,0H2A2,2,0,0,0,0,2V18.062a2,2,0,0,0,2,2H6.958a1.032,1.032,0,1,0,0-2.065H3.025a1,1,0,0,1-1-1V3.022a1,1,0,0,1,1-1H6.979A1.011,1.011,0,0,0,6.979,0Z"/><path class="b" d="M6,10.01a1,1,0,0,0,1,1h9.6L13.28,14.3a1,1,0,0,0,0,1.413l.006.006a1.016,1.016,0,0,0,1.431,0l5.028-5a1,1,0,0,0,0-1.414l0,0-5.027-5a1.016,1.016,0,0,0-1.432,0,1,1,0,0,0-.006,1.417l0,0,3.312,3.292H7A1,1,0,0,0,6,10.01Z"/></g></g></svg>