<svg xmlns="http://www.w3.org/2000/svg" width="24" height="24" viewBox="0 0 24 24"><defs><style>.a{fill:#00b1ff;opacity:0;}</style></defs><g transform="translate(6076 18318)"><rect class="a" width="24" height="24" transform="translate(-6076 -18318)"/><g transform="translate(-6074 -18316)"><path d="M15.455,11.818V7.273a5.455,5.455,0,0,0-10.909,0v4.545a3.62,3.62,0,0,1-.486,1.818H15.941A3.62,3.62,0,0,1,15.455,11.818Zm3.636,3.636H.909a.909.909,0,1,1,0-1.818,1.818,1.818,0,0,0,1.818-1.818V7.273a7.273,7.273,0,0,1,14.545,0v4.545a1.818,1.818,0,0,0,1.818,1.818A.909.909,0,0,1,19.091,15.455Zm-6.732,3.183a2.727,2.727,0,0,1-4.718,0,.909.909,0,0,1,.786-1.365h3.145A.909.909,0,0,1,12.359,18.638Z"/></g></g></svg>