<?xml version="1.0" encoding="UTF-8"?>
<svg width="190px" height="120px" viewBox="0 0 190 120" version="1.1" xmlns="http://www.w3.org/2000/svg" xmlns:xlink="http://www.w3.org/1999/xlink">
    <title>Documento App Copy</title>
    <g id="Page-1" stroke="none" stroke-width="1" fill="none" fill-rule="evenodd">
        <g id="004---validación-identidad-cliente---006K" transform="translate(-85.000000, -201.000000)" stroke="#6E6E6E" stroke-width="2">
            <g id="Documento-App-Copy" transform="translate(180.000000, 261.000000) rotate(-90.000000) translate(-180.000000, -261.000000) translate(120.000000, 166.000000)">
                <g id="Contenedor">
                    <rect id="Rectangle" x="1" y="1" width="118" height="188" rx="10"></rect>
                </g>
                <g id="Contorno-huella-" transform="translate(23.000000, 124.000000)">
                    <rect id="Contorno-huella" x="1" y="1" width="64" height="53" rx="7"></rect>
                </g>
                <g id="noun_profile_1969787" transform="translate(55.500000, 151.500000) rotate(-270.000000) translate(-55.500000, -151.500000) translate(29.000000, 124.000000)">
                    <path d="M53,55 L53,49.2308511 C53,46.4223404 51.2521277,44.0468085 48.8276596,43.2042553 L48.8276596,43.2042553 C48.6359574,43.1340426 36.2317021,39.8457447 34.45,36.1829787 C33.6380851,34.5095745 34.4387234,32.3680851 35.2506383,30.893617 C35.622766,30.3787234 35.983617,29.8287234 36.3331915,29.2553191 C36.3331915,29.2553191 36.3331915,29.2553191 36.3331915,29.2553191 L36.3331915,29.2553191 C38.4306383,25.7680851 40.0431915,21.1691489 40.2010638,15.493617 C40.4491489,6.95106383 34.0778723,0.0234042553 26.5225532,-9.09494702e-13 L26.5225532,-9.09494702e-13 C26.5112766,-9.09494702e-13 26.5112766,-9.09494702e-13 26.5,-9.09494702e-13 C26.5,-9.09494702e-13 26.4887234,-9.09494702e-13 26.4774468,-9.09494702e-13 L26.4774468,-9.09494702e-13 C18.9221277,0.0234042553 12.5508511,6.95106383 12.7989362,15.493617 C12.9568085,21.1691489 14.5693617,25.7680851 16.6668085,29.2553191 L16.6668085,29.2553191 C16.6668085,29.2553191 16.6668085,29.2553191 16.6668085,29.2553191 C17.016383,29.8287234 17.377234,30.3787234 17.7493617,30.893617 C18.5612766,32.3680851 19.3619149,34.5095745 18.55,36.1829787 C16.7795745,39.8457447 4.36404255,43.1340426 4.17234043,43.2042553 L4.17234043,43.2042553 C1.74787234,44.0468085 0,46.4223404 0,49.2308511 L0,55" id="Path"></path>
                </g>
            </g>
        </g>
    </g>
</svg>