<?xml version="1.0" encoding="UTF-8"?>
<svg width="191px" height="121px" viewBox="0 0 191 121" version="1.1" xmlns="http://www.w3.org/2000/svg" xmlns:xlink="http://www.w3.org/1999/xlink">
    <title>Documento App</title>
    <g id="Page-1" stroke="none" stroke-width="1" fill="none" fill-rule="evenodd">
        <g id="004---validación-identidad-cliente---006K" transform="translate(-85.000000, -433.000000)">
            <g id="Documento-App" transform="translate(180.500000, 493.500000) rotate(-90.000000) translate(-180.500000, -493.500000) translate(120.500000, 398.500000)">
                <g id="Contenedor" stroke="#6E6E6E" stroke-width="2">
                    <rect id="Rectangle" x="1" y="1" width="118" height="188" rx="10"></rect>
                </g>
                <g id="Código-de-barra" transform="translate(8.500000, 12.500000)" fill="#6E6E6E">
                    <rect id="Rectangle" x="0.5" y="4.5" width="24" height="1"></rect>
                    <rect id="Rectangle" x="0" y="11.95" width="24" height="1"></rect>
                    <rect id="Rectangle" x="0" y="0" width="24" height="2"></rect>
                    <rect id="Rectangle" x="0" y="9" width="24" height="2"></rect>
                    <rect id="Rectangle" x="0" y="6.95" width="24" height="1"></rect>
                    <rect id="Rectangle" x="0.5" y="14.5" width="24" height="1"></rect>
                    <rect id="Rectangle" x="0.5" y="21.5" width="24" height="1"></rect>
                    <rect id="Rectangle" x="0" y="29.95" width="24" height="1"></rect>
                    <rect id="Rectangle" x="0" y="18" width="24" height="2"></rect>
                    <rect id="Rectangle" x="0" y="27" width="24" height="2"></rect>
                    <rect id="Rectangle" x="0" y="16.95" width="24" height="1"></rect>
                    <rect id="Rectangle" x="0" y="24.95" width="24" height="1"></rect>
                    <rect id="Rectangle" x="0.5" y="32.5" width="24" height="1"></rect>
                    <rect id="Rectangle" x="0.5" y="40.5" width="24" height="1"></rect>
                    <rect id="Rectangle" x="0" y="47.95" width="24" height="1"></rect>
                    <rect id="Rectangle" x="0" y="36" width="24" height="2"></rect>
                    <rect id="Rectangle" x="0" y="45" width="24" height="2"></rect>
                    <rect id="Rectangle" x="0" y="34.95" width="24" height="1"></rect>
                    <rect id="Rectangle" x="0" y="41.95" width="24" height="1"></rect>
                    <rect id="Rectangle" x="0.5" y="50.5" width="24" height="1"></rect>
                    <rect id="Rectangle" x="0.5" y="56.5" width="24" height="1"></rect>
                    <rect id="Rectangle" x="0" y="65.95" width="24" height="1"></rect>
                    <rect id="Rectangle" x="0" y="54" width="24" height="2"></rect>
                    <rect id="Rectangle" x="0" y="63" width="24" height="2"></rect>
                    <rect id="Rectangle" x="0" y="51.95" width="24" height="1"></rect>
                    <rect id="Rectangle" x="0" y="59.95" width="24" height="1"></rect>
                    <rect id="Rectangle" x="0.5" y="66.5" width="24" height="1"></rect>
                    <rect id="Rectangle" x="0.5" y="74.5" width="24" height="1"></rect>
                    <rect id="Rectangle" x="0" y="82.95" width="24" height="1"></rect>
                    <rect id="Rectangle" x="0" y="70" width="24" height="2"></rect>
                    <rect id="Rectangle" x="0" y="79" width="24" height="2"></rect>
                    <rect id="Rectangle" x="0" y="68.95" width="24" height="1"></rect>
                    <rect id="Rectangle" x="0" y="76.95" width="24" height="1"></rect>
                    <rect id="Rectangle" x="0.5" y="84.5" width="24" height="1"></rect>
                    <rect id="Rectangle" x="0.5" y="92.5" width="24" height="1"></rect>
                    <rect id="Rectangle" x="0" y="99.95" width="24" height="1"></rect>
                    <rect id="Rectangle" x="0" y="88" width="24" height="2"></rect>
                    <rect id="Rectangle" x="0" y="97" width="24" height="2"></rect>
                    <rect id="Rectangle" x="0" y="86.95" width="24" height="1"></rect>
                    <rect id="Rectangle" x="0" y="94.95" width="24" height="1"></rect>
                    <rect id="Rectangle" x="0.5" y="102.5" width="24" height="1"></rect>
                    <rect id="Rectangle" x="0.5" y="110.5" width="24" height="1"></rect>
                    <rect id="Rectangle" x="0" y="117.95" width="24" height="1"></rect>
                    <rect id="Rectangle" x="0" y="106" width="24" height="2"></rect>
                    <rect id="Rectangle" x="0" y="115" width="24" height="2"></rect>
                    <rect id="Rectangle" x="0" y="104.95" width="24" height="1"></rect>
                    <rect id="Rectangle" x="0" y="112.95" width="24" height="1"></rect>
                    <rect id="Rectangle" x="0.5" y="120.5" width="24" height="1"></rect>
                    <rect id="Rectangle" x="0.5" y="127.5" width="24" height="1"></rect>
                    <rect id="Rectangle" x="0" y="135.95" width="24" height="1"></rect>
                    <rect id="Rectangle" x="0" y="124" width="24" height="2"></rect>
                    <rect id="Rectangle" x="0" y="133" width="24" height="2"></rect>
                    <rect id="Rectangle" x="0" y="122.95" width="24" height="1"></rect>
                    <rect id="Rectangle" x="0" y="129.95" width="24" height="1"></rect>
                    <rect id="Rectangle" x="0.5" y="138.5" width="24" height="1"></rect>
                    <rect id="Rectangle" x="0.5" y="146.5" width="24" height="1"></rect>
                    <rect id="Rectangle" x="0" y="154.95" width="24" height="1"></rect>
                    <rect id="Rectangle" x="0" y="142" width="24" height="2"></rect>
                    <rect id="Rectangle" x="0" y="151" width="24" height="2"></rect>
                    <rect id="Rectangle" x="0" y="140.95" width="24" height="1"></rect>
                    <rect id="Rectangle" x="0" y="147.95" width="24" height="1"></rect>
                    <rect id="Rectangle" x="0.5" y="156.5" width="24" height="1"></rect>
                    <rect id="Rectangle" x="0" y="161" width="24" height="2"></rect>
                    <rect id="Rectangle" x="0" y="157.95" width="24" height="1"></rect>
                    <rect id="Rectangle" x="0" y="164.95" width="24" height="1"></rect>
                </g>
                <g id="Huella" transform="translate(54.000000, 11.000000)">
                    <g id="Contorno-huella-" stroke="#6E6E6E" stroke-width="2">
                        <rect id="Contorno-huella" x="1" y="1" width="55" height="43" rx="7"></rect>
                    </g>
                    <g transform="translate(28.694690, 23.130208) rotate(-270.000000) translate(-28.694690, -23.130208) translate(12.564482, 1.824899)" fill="#6E6E6E" fill-rule="nonzero" id="Path">
                        <path d="M29.6596585,31.7198969 C27.2213722,29.7755941 20.7454962,24.6095338 19.7916289,21.2685178 C19.1085423,18.8761488 16.6199994,17.4901925 14.2444918,18.1749971 C11.8689002,18.8652224 10.4919697,21.3715138 11.1750563,23.7656616 C12.7886467,29.4195974 18.6907737,34.4935034 24.0963015,38.8048498 C24.2612743,38.9367286 24.4584349,39 24.6520657,39 C24.9173837,39 25.1791719,38.8825202 25.354902,38.654845 C25.6614841,38.2645445 25.5969405,37.6953563 25.207914,37.3863685 C20.0211454,33.248489 14.3645866,28.404037 12.8979843,23.2650809 C12.489208,21.8303371 13.3157529,20.325207 14.7392422,19.9113598 C16.1628155,19.5011547 17.6580759,20.3305432 18.068617,21.7670657 C19.0492933,25.2020994 23.9169576,29.4429748 28.547962,33.1363454 C28.9388375,33.447112 29.4999803,33.3802832 29.8065625,32.988204 C30.1132287,32.5980729 30.0486851,32.0288848 29.6596585,31.7198969 Z"></path>
                        <path d="M31.6746475,23.4924656 C29.6170397,21.8261698 26.6098621,19.3478184 26.1712053,18.9365175 C24.3038583,13.1080249 18.0305369,9.75079806 12.1042103,11.4346434 C9.16218714,12.2783375 6.72760864,14.2135608 5.2459857,16.8852863 C3.76444534,19.5534688 3.41563387,22.6399556 4.2594207,25.5736052 C5.7039659,30.5847691 2.6034746,31.9751342 1.61864375,32.2827035 C1.1535618,32.4268071 0.894595711,32.9190169 1.04084218,33.3830487 C1.15711267,33.7591682 1.50592414,34 1.88116071,34 C1.96927194,34 2.05730059,33.985911 2.14186095,33.9595455 C4.83722226,33.1193943 7.4515741,30.2912064 5.9506278,25.0866685 C5.2371498,22.6047742 5.53311104,19.9928654 6.7856613,17.7342534 C8.03994571,15.4756415 10.1011044,13.8374413 12.5886157,13.1255744 C17.6463819,11.6860214 23.0071285,14.5932232 24.5345,19.60793 C24.55564,19.6747499 24.5837993,19.7397572 24.6207945,19.801304 C24.712374,19.9524933 24.9009006,20.2706088 30.5647103,24.8564652 C30.941681,25.1640346 31.4984251,25.1060306 31.8031396,24.7281809 C32.1097535,24.351979 32.0516182,23.7983048 31.6746475,23.4924656 Z"></path>
                        <path d="M30.6692768,27.4597634 C24.2045437,22.2614794 23.0983172,20.6141715 22.8562,19.7595818 C21.6629256,15.5450214 17.3077559,13.1015949 13.1564872,14.3082549 C9.13587202,15.483067 6.82240756,19.6941439 7.77527957,24.1068424 C9.53477336,32.2422809 8.22121615,34.1248 4.61175104,35.2713303 C4.15185087,35.4163882 3.89577009,35.9135995 4.04038714,36.3789628 C4.15707701,36.7575732 4.50028731,37 4.87134313,37 C4.95667617,37 5.04552052,36.9876423 5.12913874,36.9628439 C10.1723622,35.3633911 11.2681365,32.0246524 9.47557101,23.7299737 C8.72129227,20.2426107 10.5103464,16.9251041 13.6355771,16.0121263 C16.8740681,15.0708668 20.2535831,16.9746179 21.1821209,20.2514851 C21.5218199,21.4546618 22.4520725,23.1125027 29.5892627,28.8487204 C29.969056,29.1548434 30.5142892,29.0858392 30.8121791,28.7036625 C31.1099873,28.3196611 31.0472736,27.76232 30.6692768,27.4597634 Z"></path>
                        <path d="M26.7464799,34.5055598 C26.3460643,34.1013334 25.6405429,33.5606149 24.7478955,32.8764321 C21.8149808,30.6295631 16.9059889,26.8707823 15.6995417,22.6325568 C15.5660427,22.1688612 15.0928242,21.9011268 14.6265935,22.0340917 C14.1672693,22.1688612 13.9020589,22.651833 14.0337703,23.1172512 C15.3997175,27.9154714 20.5964269,31.8947394 23.7009483,34.2728507 C24.5069799,34.890592 25.2038071,35.4242562 25.5210195,35.7444876 C25.6909199,35.9142003 25.9127411,36 26.1346435,36 C26.3565459,36 26.5783671,35.9142823 26.7465612,35.742765 C27.0844931,35.4015349 27.0844931,34.8467899 26.7464799,34.5055598 Z"></path>
                        <path d="M21.7367622,38.757248 C21.5405993,38.5647222 21.3317809,38.2812244 21.09242,37.9662268 C20.1978332,36.7849861 18.8461237,35 16.6015993,35 C13.5489683,35 13.0683905,40.0574331 13.0017373,41.0706752 C12.9711106,41.5536715 13.3490932,41.9684182 13.8440985,41.9981953 C13.8639257,42 13.8819811,42 13.9017239,42 C14.373274,42 14.769312,41.6430028 14.7998543,41.1792838 C14.9151053,39.3697705 15.6261006,36.750041 16.6015993,36.750041 C17.9371095,36.750041 18.8820658,37.9995313 19.6416589,39.0058007 C19.9440449,39.403075 20.2158043,39.7530176 20.4641928,39.9945157 C20.8151766,40.335763 21.3857784,40.335763 21.7367622,39.9945157 C22.0877459,39.6532683 22.0877459,39.0984953 21.7367622,38.757248 Z"></path>
                        <path d="M13.7159573,30.6403393 C13.5545866,30.1582489 13.0147328,29.8851989 12.5095486,30.0464685 C12.0042744,30.200435 11.7257477,30.7155183 11.8871185,31.1975228 C12.7073899,33.6481851 11.0917911,38.4577483 8.66357501,39.2110844 C8.16028187,39.3687455 7.88364624,39.8837428 8.04690809,40.3658333 C8.17946266,40.754444 8.55596447,41 8.96137254,41 C9.05934766,41 9.15921384,40.9853079 9.2552979,40.9560096 C12.9533183,39.8104541 14.7360512,33.6847865 13.7159573,30.6403393 Z"></path>
                        <path d="M31.3850477,18.59825 C30.2740217,18.2373333 29.40115,16.8275833 28.3896189,15.1973333 C26.2474794,11.73775 23.3125474,7 15.1103039,7 C6.77831701,7 1.8189894e-12,13.7786667 1.8189894e-12,22.1110833 C1.8189894e-12,22.60175 0.398229458,23 0.888870815,23 C1.37951217,23 1.77774163,22.60175 1.77774163,22.1110833 C1.77774163,14.7581667 7.75784982,8.77775 15.1103872,8.77775 C22.3224319,8.77775 24.8485515,12.856 26.8786968,16.1324167 C28.0733019,18.0613333 29.104332,19.7270833 30.835826,20.2888333 C31.3068851,20.4435 31.8064426,20.1839167 31.9557683,19.7181667 C32.1085937,19.2506667 31.8526069,18.7493333 31.3850477,18.59825 Z"></path>
                        <path d="M2.89395337,27.8415645 C2.53396694,27.2655717 1.99998708,26.2176098 1.99998708,25.800015 C1.99998708,25.3584205 1.55197272,25 1,25 C0.448014355,25 3.03157499e-12,25.3584205 3.03157499e-12,25.800015 C3.03157499e-12,26.7408032 0.919934059,28.2623842 1.10395837,28.5584055 C1.27992048,28.838377 1.63193846,29 1.99989333,29 C2.15185635,29 2.30391312,28.9727753 2.44584527,28.9151761 C2.93988913,28.7167285 3.14191277,28.2367345 2.89395337,27.8415645 Z"></path>
                        <path d="M27.8729205,8.67174481 C26.6779183,6.69248708 21.4016178,3 14.0645407,3 C6.26236391,3 2.07997844,7.09329333 1.12707946,8.67174481 C0.876239217,9.08477377 1.00859991,9.62199852 1.41972641,9.87227684 C1.83085292,10.1225552 2.3673179,9.99302732 2.61472869,9.5782757 C3.37247526,8.32524346 7.10021279,4.74997949 14.0645407,4.74997949 C20.7605544,4.74997949 25.5248044,8.1572428 26.3835566,9.5782757 C26.5472723,9.85127676 26.8346934,10 27.1291368,10 C27.2841972,10 27.4391759,9.9597225 27.5802736,9.87399951 C27.9914001,9.62199852 28.1237608,9.08477377 27.8729205,8.67174481 Z"></path>
                        <path d="M24.4173459,2.05573314 C24.0822664,1.92178381 23.7645116,1.78380382 23.4467568,1.64779229 C21.564191,0.83790974 19.6177505,-1.61870517e-13 14.6368932,-1.61870517e-13 C10.0722339,-1.61870517e-13 8.92718316,0.679870158 7.47644015,1.53980795 C7.18281041,1.71378272 6.87371796,1.89778729 6.50925116,2.08769725 C6.07572834,2.31369573 5.88062284,2.9055474 6.07572834,3.40947432 C6.2709148,3.91143278 6.78385608,4.13939972 7.21729794,3.91143278 C7.61277113,3.70746236 7.94955076,3.5075226 8.26738653,3.31948737 C9.55581148,2.55356719 10.4901321,1.99967876 14.6368122,1.99967876 C19.306796,1.99967876 21.0252627,2.73954022 22.8438727,3.52345779 C23.173771,3.66340625 23.5053694,3.80738537 23.8542115,3.94536536 C23.9474736,3.98136014 24.0424357,3.99935753 24.1356978,3.99935753 C24.4932023,3.99935753 24.8282818,3.73942647 24.9526312,3.3254865 C25.108149,2.80356219 24.8681125,2.23570704 24.4173459,2.05573314 Z"></path>
                        <path d="M32.9523104,14.9136887 C32.4223656,13.5307487 30.9164338,11.4847284 30.8524055,11.3981141 C30.5624498,11.0048739 29.9464465,10.88163 29.476499,11.1248375 C29.0065516,11.3664049 28.858527,11.8796087 29.1484826,12.2711306 C29.1645132,12.2894844 30.5903861,14.2321766 31.0484278,15.4201758 C31.1844529,15.7750682 31.5764039,16 32.000416,16 C32.1004427,16 32.2024381,15.9866447 32.3044335,15.9600121 C32.8303471,15.8200546 33.1203028,15.3518371 32.9523104,14.9136887 Z"></path>
                    </g>
                </g>
            </g>
        </g>
    </g>
</svg>