<?xml version="1.0" encoding="UTF-8"?>
<svg width="20px" height="12px" viewBox="0 0 20 12" version="1.1" xmlns="http://www.w3.org/2000/svg" xmlns:xlink="http://www.w3.org/1999/xlink">
    <title>Mask</title>
    <g id="Adquirencia-Móvil---Flujo-Principal" stroke="none" stroke-width="1" fill="none" fill-rule="evenodd">
        <g id="006---CM-No-Clientes-|-Info-Personal---004D" transform="translate(-50.000000, -318.000000)" fill="#717171" fill-rule="nonzero">
            <g id="Formulario" transform="translate(16.000000, 152.000000)">
                <g id="Dropdown" transform="translate(16.000000, 128.000000)">
                    <g id="01-iconos/24x24_/General-icons/Ocultar-Copy" transform="translate(18.000000, 38.000000)">
                        <g id="Mask" transform="translate(-0.000000, -0.000000)">
                            <g id="Capa_5" transform="translate(0.000000, 0.000000)">
                                <path d="M17.0000001,11 L11.2,11 L11.2,7.70000003 C11.205491,7.03012114 11.7500987,6.49000003 12.4200001,6.49000003 L15.8000001,6.49000003 C16.4643561,6.49549076 17.0000001,7.03562133 17.0000001,7.70000003 L17.0000001,11 Z" id="Path"></path>
                                <circle id="Oval" cx="14.1100001" cy="4.54000002" r="1.58000001"></circle>
                                <path d="M18,1 C18.5522848,1 19,1.44771526 19,2 L19,10 C19,10.5522848 18.5522848,11 18,11 L2,11 C1.44771526,11 1,10.5522848 1,10 L1,2 C1,1.44771526 1.44771526,1 2,1 L18,1 M18,0 L2,0 C0.895430504,0 0,0.895430504 0,2 L0,10 C0,11.1045695 0.895430504,12 2,12 L18,12 C19.1045696,12 20,11.1045695 20,10 L20,2 C20,0.895430504 19.1045696,0 18,0 Z" id="Shape"></path>
                                <path d="M9.00000001,9.51000004 L2.00000001,9.51000004 C1.72609155,9.50467993 1.50532011,9.28390849 1.50000001,9.01000004 C1.50000001,8.73385766 1.72385763,8.51000004 2.00000001,8.51000004 L9.00000001,8.51000004 C9.27614241,8.51000004 9.50000001,8.73385766 9.50000001,9.01000004 C9.49467993,9.28390849 9.27390849,9.50467993 9.00000001,9.51000004 L9.00000001,9.51000004 Z" id="Path"></path>
                                <path d="M9.00000001,7.50000003 L2.00000001,7.50000003 C1.72385763,7.50000003 1.50000001,7.27614241 1.50000001,7.00000003 C1.50532011,6.72609158 1.72609155,6.50532013 2.00000001,6.50000003 L9.00000001,6.50000003 C9.27390849,6.50532013 9.49467993,6.72609158 9.50000001,7.00000003 C9.50000001,7.27614241 9.27614241,7.50000003 9.00000001,7.50000003 Z" id="Path"></path>
                            </g>
                        </g>
                    </g>
                </g>
            </g>
        </g>
    </g>
</svg>