<?xml version="1.0" encoding="UTF-8"?>
<svg width="20px" height="20px" viewBox="0 0 20 20" version="1.1" xmlns="http://www.w3.org/2000/svg" xmlns:xlink="http://www.w3.org/1999/xlink">
    <title>Combined Shape</title>
    <g id="Adquirencia-Móvil---Flujo-Principal" stroke="none" stroke-width="1" fill="none" fill-rule="evenodd">
        <g id="006---CM-No-Clientes-|-Info-Personal---006D-Copy-26" transform="translate(-106.000000, -266.000000)" fill="#6E6E6E" fill-rule="nonzero">
            <g id="Box" transform="translate(16.000000, 152.000000)">
                <g id="Tabs" transform="translate(16.000000, 64.000000)">
                    <g id="Tabs---Action-Copy-2" transform="translate(0.000000, 48.000000)">
                        <g id="Group-4" transform="translate(72.000000, 0.000000)">
                            <path d="M7.80541087,9.9684949 C8.02336587,9.7505399 8.37291635,9.7505399 8.59087135,9.9684949 C8.80882635,10.1864499 8.80882635,10.5360004 8.59087135,10.7539554 L8.59087135,10.7539554 L3.86165906,15.4831677 C2.96105255,16.3837742 2.96105255,17.8477738 3.86165906,18.7483803 L3.86165906,18.7483803 L4.57309708,19.4598183 C5.4737036,20.3604248 6.93770323,20.3604248 7.83830974,19.4598183 L7.83830974,19.4598183 L12.567522,14.7306061 C13.4681285,13.8299995 13.4681285,12.3659999 12.567522,11.4653934 C12.349567,11.2474384 12.349567,10.8978879 12.567522,10.6799329 C12.785477,10.4619779 13.1391399,10.4619779 13.3529825,10.6799329 C14.6853867,12.0123371 14.6853867,14.1836624 13.3529825,15.5160665 L13.3529825,15.5160665 L8.62377022,20.2452788 C7.95756814,20.9114809 7.08163577,21.2445819 6.20570341,21.2445819 C5.32977105,21.2445819 4.45383869,20.9114809 3.78763661,20.2452788 L3.78763661,20.2452788 L3.07619859,19.5338408 C2.42644594,18.8882005 2.07278311,18.0287176 2.07278311,17.115774 C2.07278311,16.2028304 2.4305583,15.3433475 3.07619859,14.6977072 L3.07619859,14.6977072 Z M15.3803752,3.75472119 C16.7127794,2.42231703 18.8841047,2.42231703 20.2165089,3.75472119 L20.2165089,3.75472119 L20.9279469,4.46615921 C21.5735872,5.1117995 21.92725,5.97128243 21.92725,6.88422601 C21.92725,7.7971696 21.5694748,8.65665253 20.9238345,9.30229282 L20.9238345,9.30229282 L16.1946222,14.0315051 C16.0877009,14.1425388 15.9437684,14.1959994 15.8039482,14.1959994 C15.664128,14.1959994 15.5201954,14.1384264 15.4132741,14.0315051 C15.1953191,13.8135501 15.1953191,13.4639996 15.4132741,13.2460446 L15.4132741,13.2460446 L20.1424864,8.51683234 C21.0430929,7.61622583 21.0430929,6.1522262 20.1424864,5.25161969 L20.1424864,5.25161969 L19.4310484,4.54018166 C18.5304419,3.63957515 17.0664422,3.63957515 16.1658357,4.54018166 L16.1658357,4.54018166 L11.4366234,9.26939395 C10.5360169,10.1700005 10.5360169,11.6340001 11.4366234,12.5346066 C11.6545784,12.7525616 11.6545784,13.1021121 11.4366234,13.3200671 C11.2186684,13.5380221 10.869118,13.5380221 10.651163,13.3200671 C9.3187588,11.9876629 9.3187588,9.81633763 10.651163,8.48393347 L10.651163,8.48393347 Z" id="Combined-Shape"></path>
                        </g>
                    </g>
                </g>
            </g>
        </g>
    </g>
</svg>