<?xml version="1.0" encoding="UTF-8"?>
<svg width="20px" height="20px" viewBox="0 0 20 20" version="1.1" xmlns="http://www.w3.org/2000/svg" xmlns:xlink="http://www.w3.org/1999/xlink">
    <title>Combined Shape</title>
    <g id="Adquirencia-Móvil---Flujo-Principal" stroke="none" stroke-width="1" fill="none" fill-rule="evenodd">
        <g id="006---CM-No-Clientes-|-Info-Personal---006D-Copy-26" transform="translate(-234.000000, -266.000000)" fill="#717171" fill-rule="nonzero">
            <g id="Box" transform="translate(16.000000, 152.000000)">
                <g id="Tabs" transform="translate(16.000000, 64.000000)">
                    <g id="Tabs---Action-Copy-2" transform="translate(0.000000, 48.000000)">
                        <g id="Group-5" transform="translate(200.000000, 0.000000)">
                            <path d="M12,2.00156742 C14.6517492,2.00156742 17.1948897,3.05497069 19.0699595,4.93004053 C20.9450294,6.80511037 21.9984326,9.34825083 21.9984326,12 C21.9984326,17.5219819 17.5219819,21.9984326 12,21.9984326 C6.47801818,21.9984326 2.00156742,17.5219819 2.00156742,12 C2.00156742,6.47801818 6.47801818,2.00156742 12,2.00156742 Z M12.5960864,16.9992163 L12.5960864,20.9985894 L12.6460786,20.9985894 C13.3574193,20.7716816 13.9752737,20.3188223 14.4058027,19.7087916 C14.662856,19.3950383 14.8936017,19.0606243 15.0956946,18.7089483 C15.3246895,18.2793595 15.5250933,17.835131 15.6956005,17.3791568 C14.6770559,17.1531033 13.6390739,17.0258668 12.5960864,16.9992163 L12.5960864,16.9992163 Z M11.3962924,16.9947333 C10.3542402,17.0213598 9.31718903,17.1484822 8.29955783,17.374333 C8.46991212,17.8298983 8.67013625,18.2737285 8.89892581,18.702932 C9.10083749,19.0542926 9.33137623,19.3884067 9.588199,19.7018787 C10.0183419,20.3113624 10.6356423,20.7638155 11.3463451,20.9905199 L11.3962924,20.9905199 L11.3962924,16.9947333 Z M16.5254704,17.5791254 C16.3488983,18.1114809 16.1177027,18.6241321 15.8355786,19.1088856 C15.5525316,19.6187048 15.2174644,20.0978508 14.8357353,20.5386615 L14.8357353,20.5386615 L14.8357353,20.6086505 C15.0656993,20.5286631 15.3056616,20.4486756 15.5356256,20.3486913 L15.5356256,20.3486913 L15.6456084,20.2986991 C15.8855707,20.1987148 16.1155347,20.088732 16.3454986,19.9687508 L16.3454986,19.9687508 L16.445483,19.9087602 C16.6754469,19.7787806 16.9054109,19.648801 17.1253764,19.4988245 L17.1253764,19.4988245 L17.185367,19.4988245 C17.4153309,19.3388496 17.6452949,19.1688762 17.8652604,18.9889044 C18.0838412,18.8087809 18.2908837,18.615096 18.4851632,18.4089953 L18.4851632,18.4089953 L18.4351711,18.3190094 L18.2142682,18.208558 C17.9958649,18.1002937 17.7802737,17.9990596 17.5253137,17.9090737 C17.185367,17.7890925 16.8554187,17.6791098 16.5254704,17.5791254 Z M7.47043211,17.5741223 C7.14077972,17.674017 6.81112732,17.7839011 6.47148546,17.9037747 C6.21675407,17.9936799 6.0013562,18.0948233 5.78314879,18.2029905 L5.56244401,18.3133428 L5.51249668,18.403248 C5.70660201,18.6091639 5.91345884,18.8026751 6.1318436,18.9826371 C6.35161186,19.1624475 6.58136959,19.3322684 6.81112732,19.4920999 L6.87106412,19.4920999 C7.09083238,19.6419419 7.32059011,19.7718049 7.55034784,19.901668 L7.6502425,19.9616048 C7.88000023,20.0814784 8.10975796,20.1913625 8.34950516,20.2912572 L8.45938929,20.3412045 C8.68914702,20.4410992 8.92889421,20.5210149 9.15865194,20.6009307 L9.15865194,20.5310044 C8.77726514,20.090589 8.44249843,19.6118727 8.15970529,19.1025107 C7.87783418,18.6181918 7.64684588,18.1060004 7.47043211,17.5741223 Z M21.0947541,12.4799248 L17.4953184,12.4799248 C17.4735776,13.9270911 17.2652236,15.3654058 16.8754156,16.759254 C17.3385551,16.8976887 17.7926851,17.0646482 18.2352024,17.2591756 C18.5251569,17.3791568 18.8151115,17.5091364 19.0950676,17.6591129 L19.0950676,17.6591129 L19.3251088,17.3695374 C19.9219402,16.5853627 20.3850573,15.7068785 20.6948168,14.7695659 C20.7348106,14.6695815 20.7948012,14.5595988 20.7948012,14.4596145 C20.9049651,14.0589771 20.9884682,13.651482 21.044762,13.2398057 C21.0947541,13.0998276 21.0947541,12.9598496 21.0947541,12.8098731 L21.0947541,12.8098731 L21.0947541,12.4799248 Z M6.50145386,12.4794944 L2.90524594,12.4794944 L2.90524594,12.8091468 L2.90524594,12.8091468 C2.90524594,12.9589888 2.90524594,13.0988413 2.95519327,13.2386939 C3.01143653,13.650001 3.09486473,14.0571307 3.20492993,14.4574088 C3.20492993,14.5573034 3.26486673,14.6671876 3.30482459,14.7670822 C3.61430634,15.7035544 4.07700817,16.5812508 4.67330429,17.3647223 L4.90313923,17.6540381 C5.18284429,17.5041961 5.47253882,17.374333 5.76223334,17.2544594 C6.2043538,17.0601065 6.65807654,16.8932967 7.12080078,16.7549861 C6.73134234,15.3623878 6.52317519,13.925363 6.50145386,12.4794944 Z M16.5954595,12.4499295 L12.5960864,12.4499295 L12.5960864,13.7297289 L12.5760895,16.1393511 C13.7136037,16.1605059 14.8459774,16.2978649 15.9555598,16.5492869 C16.0127615,16.3688284 16.0594985,16.1852184 16.0955378,15.9993731 C16.3957092,14.8389056 16.5634195,13.648162 16.5954595,12.4499295 L16.5954595,12.4499295 Z M11.3962924,12.449526 L7.40050584,12.449526 C7.43251703,13.646684 7.60007699,14.8363597 7.89997917,15.9957866 C7.93598612,16.1814653 7.9826813,16.3649106 8.0398317,16.5452073 C9.14841901,16.2940107 10.2797773,16.156775 11.4162714,16.1356391 L11.3962924,13.7281777 L11.3962924,12.449526 Z M15.9755566,7.49070692 C14.8662979,7.74535659 13.7339341,7.88606452 12.5960864,7.91064109 L12.5960864,7.91064109 L12.5960864,11.5500706 L16.5954595,11.5500706 C16.5640718,10.1759373 16.3557215,8.81157861 15.9755566,7.49070692 Z M8.01985276,7.49475066 C7.64002881,8.81443785 7.4318653,10.1775731 7.40050584,11.550474 L11.3962924,11.550474 L11.3962924,7.91430825 C10.2594651,7.88975372 9.12811675,7.74917197 8.01985276,7.49475066 Z M19.0950676,6.35088561 L19.0950676,6.36088404 C18.4578023,6.70078892 17.7878415,6.97547284 17.0953811,7.18075551 L17.0953811,7.18075551 L16.8754156,7.24074611 C17.2617939,8.63531696 17.4700838,10.0731892 17.4953184,11.5200753 L17.4953184,11.5200753 L21.0647588,11.5200753 C21.0147667,11.4000941 21.0147667,11.2901113 21.0147667,11.1701301 L21.0147667,11.0501489 L20.9547761,10.6502116 C20.9037783,10.3132232 20.8336763,9.97940422 20.744809,9.65036837 L20.744809,9.65036837 L20.6548231,9.32042009 L20.5948325,9.1704436 C20.5248435,8.95047809 20.4148607,8.65052511 20.3648686,8.53054392 C20.3148764,8.41056272 20.2848811,8.3405737 20.2048936,8.18059877 C20.1249062,8.02062385 20.0949109,7.92063953 19.9749297,7.71067244 C19.8549485,7.50070536 19.7349673,7.29073827 19.5949892,7.09076962 L19.5949892,7.09076962 L19.4250159,6.8408088 C19.3150331,6.67083545 19.2150488,6.5008621 19.0950676,6.35088561 L19.0950676,6.35088561 Z M4.90313923,6.35595148 C4.78326563,6.50579348 4.68337097,6.67561441 4.57348683,6.84543534 L4.4036659,7.095172 C4.26381337,7.29496133 4.14393978,7.50474012 4.02406618,7.71451892 C3.90419258,7.92429772 3.87422418,8.02419238 3.79430845,8.18402384 C3.71439272,8.34385531 3.68442432,8.41378157 3.63447699,8.53365517 C3.58452965,8.65352877 3.47464552,8.95321276 3.40471926,9.17298102 L3.34478246,9.32282302 L3.25487726,9.65247541 C3.16608965,9.9812162 3.09605054,10.3147358 3.04509847,10.6514221 L2.98516167,11.0510007 L2.98516167,11.1708743 C2.98516167,11.2907479 2.98516167,11.400632 2.93521433,11.5205056 L6.50145386,11.5205056 C6.52666585,10.0749171 6.73476897,8.63833426 7.12080078,7.245014 L6.90103252,7.1850772 C6.20919307,6.97997862 5.53983307,6.70554102 4.90313923,6.36594095 L4.90313923,6.35595148 Z M11.3962924,3.00948022 C10.7013632,3.21366836 10.0914395,3.63781071 9.65812526,4.21820566 C9.07494601,4.94351538 8.61588226,5.76037882 8.29955783,6.63565654 C9.3175168,6.85814697 10.3545643,6.9819236 11.3962924,7.0052668 L11.3962924,3.00948022 Z M12.5960864,3.00141068 L12.5960864,7.00078373 C13.6387496,6.97741957 14.6767279,6.85353184 15.6956005,6.63084172 C15.3789922,5.75477838 14.9195164,4.93718176 14.3358137,4.21122103 C13.9021106,3.63030514 13.2916394,3.20578209 12.5960864,3.00141068 L12.5960864,3.00141068 Z M9.18862034,3.25921688 C8.89892581,3.45900621 8.69913648,3.54891141 8.46937875,3.6388166 L8.49934715,3.6388166 L8.37947356,3.68876394 L7.6802109,4.0284058 L7.58031624,4.07835313 C7.34681388,4.2064138 7.12008376,4.34645299 6.90103252,4.49791072 L6.84109572,4.49791072 C6.61133799,4.65774218 6.38158026,4.82756311 6.17180147,5.00737351 C6.03194894,5.12724711 5.88765664,5.25156047 5.74780411,5.38031359 L5.54246508,5.5767731 C6.11442352,5.85951937 6.70924713,6.09343876 7.32059011,6.27603575 L7.43047424,6.27603575 C7.61219677,5.74141307 7.84642777,5.22610487 8.1297369,4.73765791 C8.4133955,4.23504939 8.74814976,3.76304587 9.12868354,3.32914314 L9.18862034,3.25921688 Z M14.80574,3.2513715 L14.8657306,3.32136052 C15.2466059,3.75565271 15.5816607,4.22807987 15.8655739,4.73113952 C16.1491373,5.22002488 16.3835785,5.73579561 16.5654642,6.27089815 L16.5654642,6.27089815 L16.6754469,6.27089815 C17.2873386,6.08813727 17.8826961,5.85400791 18.4551679,5.57100786 L18.4551679,5.57100786 L18.2496446,5.37437202 C18.1096665,5.24550333 17.9652447,5.1210784 17.8252667,5.0010972 C17.6152996,4.82112542 17.3853356,4.65115206 17.1553717,4.49117714 L17.1553717,4.49117714 L17.0953811,4.49117714 C16.8761332,4.33958347 16.6491996,4.19941859 16.4154877,4.07124297 L16.4154877,4.07124297 L16.3155033,4.02125081 L15.6156131,3.6813041 L15.4956319,3.63131194 L15.5256272,3.63131194 C15.2956632,3.54132604 15.0956946,3.45134015 14.80574,3.2513715 L14.80574,3.2513715 Z" id="Combined-Shape"></path>
                        </g>
                    </g>
                </g>
            </g>
        </g>
    </g>
</svg>