<?xml version="1.0" encoding="UTF-8"?>
<svg width="14px" height="22px" viewBox="0 0 14 22" version="1.1" xmlns="http://www.w3.org/2000/svg" xmlns:xlink="http://www.w3.org/1999/xlink">
    <title>Mask</title>
    <g id="Adquirencia-Móvil---Flujo-Principal" stroke="none" stroke-width="1" fill="none" fill-rule="evenodd">
        <g id="Adquirencia-Móvil-|-Beneficios-Cuenta---002L" transform="translate(-45.000000, -377.000000)" fill="#717171" fill-rule="nonzero">
            <g id="Contenerdor" transform="translate(16.000000, 152.000000)">
                <g id="Beneficio-2-Copy-2" transform="translate(24.000000, 224.000000)">
                    <g id="04-iconos/01-24x24_/General-icons/Concesionario-Copy-4" transform="translate(5.000000, 1.000000)">
                        <g id="Mask" transform="translate(-0.000000, -0.000000)">
                            <g id="celular" transform="translate(0.000000, 0.000000)">
                                <circle id="Oval" cx="7" cy="19" r="1"></circle>
                                <path d="M13.5000814,10 L13.5000814,3 C13.5053823,2.33532339 13.2437189,1.69630662 12.7737061,1.22629388 C12.3036934,0.756281135 11.6646766,0.494617738 11,0.499918581 L3,0.499918581 C2.3361434,0.497328512 1.69870526,0.759862651 1.22928395,1.22928395 C0.759862651,1.69870526 0.497328512,2.3361434 0.49997981,3 L0.49997981,19 C0.497328512,19.6638566 0.759862651,20.3012947 1.22928395,20.770716 C1.69870526,21.2401373 2.3361434,21.5026715 3,21.5000205 L11,21.5000205 C11.6629484,21.5026948 12.2993776,21.2398452 12.7672164,20.7701275 C13.2350552,20.3004098 13.4953519,19.6629323 13.49,19 L13.49,16 C13.49,16 13.49,16 13.49,16 L13.5000814,10 Z M11,20.5001349 L3,20.5001349 C2.59963372,20.5053838 2.21394888,20.3494034 1.92988252,20.0672183 C1.64581616,19.7850331 1.48727654,19.4003932 1.48996548,19 L1.48996548,3 C1.48727654,2.59960679 1.64581616,2.21496686 1.92988252,1.93278174 C2.21394888,1.65059661 2.59963372,1.49461621 3,1.49986512 L11,1.49986512 C11.3986417,1.49731545 11.7817343,1.6544885 12.0636229,1.93637711 C12.3455115,2.21826572 12.5026845,2.60135835 12.5000338,3 L12.5000338,19 C12.5026845,19.3986417 12.3455115,19.7817343 12.0636229,20.0636229 C11.7817343,20.3455115 11.3986417,20.5026845 11,20.5001349 Z" id="Shape"></path>
                                <rect id="Rectangle" x="2" y="3" width="10" height="14" rx="1.14"></rect>
                            </g>
                        </g>
                    </g>
                </g>
            </g>
        </g>
    </g>
</svg>