<?xml version="1.0" encoding="UTF-8"?>
<svg width="71px" height="60px" viewBox="0 0 71 60" version="1.1" xmlns="http://www.w3.org/2000/svg" xmlns:xlink="http://www.w3.org/1999/xlink">
    <title>Icono</title>
    <defs>
        <path d="M33.2655,59.0012944 C30.2460613,59.0042868 27.2544509,58.4322095 24.455,57.316487 C22.0617631,58.0494914 19.5519018,58.3406745 17.0514999,58.1754084 C11.2576793,57.9420681 6.20906755,54.211402 4.35499988,48.7933437 C2.34685506,44.8178189 3.12809878,40.0226819 6.29799989,36.8675501 C8.05032692,34.7945789 9.20713668,32.2962976 9.6479999,29.6327889 C6.29799989,29.8310015 1.84249987,29.4015408 0.468999862,26.0979969 C-0.398178203,23.7953464 0.0213166521,21.2129959 1.57449987,19.2926964 C2.20737832,18.3907184 2.97546486,17.5887283 3.85249988,16.9141448 L10.5524999,11.9257935 L18.5254999,6.60708773 C22.9475,4.26157154 30.485,0.561602344 33.7345,0.561602344 C37.8930814,1.26866442 41.8742098,2.76051406 45.4595,4.95531577 C45.5999364,4.6122777 45.7679722,4.2808665 45.9620001,3.96425259 C47.3897596,2.50531497 49.4759428,1.86943676 51.4895001,2.27944519 L52.2935001,2.27944519 C54.1360001,2.27944519 56.7825001,2.27944519 58.0220001,4.06335891 C58.6341749,5.06544651 58.7092789,6.29982198 58.2230001,7.36690283 C57.6962939,9.05139364 57.3812713,10.7932751 57.2850001,12.5534668 L63.1140001,16.8811093 C64.0157987,17.5982021 64.8157907,18.4315451 65.4925001,19.3587673 C66.9804265,21.2318536 67.3855015,23.7284635 66.5645001,25.9658551 C65.1575001,29.5336826 60.4675001,29.7318952 57.4190001,29.7318952 C57.848369,32.4186586 59.005811,34.9411329 60.7690001,37.0327273 C63.9095818,40.2821076 64.6095212,45.1402866 62.5110001,49.1236981 C60.6197637,54.4520194 55.6030137,58.0869503 49.8815001,58.2745148 C47.3922634,58.4341969 44.8944139,58.1430902 42.5115,57.4155933 C39.7363449,58.5342389 36.7660421,59.1065941 33.768,59.1004505 L33.232,59.1004505 L33.2655,59.0012944 Z M24.5555,53.9468722 C24.7763559,53.9004807 25.004644,53.9004807 25.2255,53.9468722 C27.8064037,55.048388 30.5872658,55.6215734 33.3995,55.631719 L33.8015,55.631719 C36.5613846,55.6371979 39.2907955,55.0628481 41.808,53.9468722 C42.1875572,53.8159414 42.6009429,53.8159414 42.9805,53.9468722 C45.1387053,54.6523347 47.4088134,54.9657426 49.6805001,54.8718645 C54.1192611,54.6883709 57.9833008,51.8239598 59.3955001,47.6701387 C60.9652789,44.8702301 60.5035897,41.3886259 58.2565001,39.0809245 C55.5446476,35.9047254 53.9776714,31.9312352 53.8010001,27.7828043 C53.7958439,27.2929089 54.0030477,26.8241509 54.3705001,26.4944222 C54.7348478,26.1717986 55.2262315,26.0264278 55.7105001,26.0979969 C59.0605001,26.6265639 62.7455001,26.3622804 63.3820001,24.8096148 C63.8160678,23.6030474 63.5742752,22.2602567 62.7455001,21.2748228 C62.2519501,20.5538888 61.6537375,19.9083194 60.9700001,19.3587673 L54.6050001,14.6346995 C54.143498,14.3106469 53.8889761,13.7710133 53.9350001,13.2141756 C54.0008682,10.7921121 54.4067271,8.39072826 55.1410001,6.0785207 C54.9065001,5.41781192 52.9970001,5.41781192 52.3940001,5.41781192 L51.5230001,5.41781192 C50.4175001,5.41781192 49.0105001,5.25263472 48.6420001,5.71513087 C48.4669766,6.13869571 48.4669766,6.6129836 48.6420001,7.03654844 C48.8156336,7.67342469 48.5884607,8.35111881 48.0641175,8.76046738 C47.5397743,9.16981595 46.8187598,9.23236059 46.2300001,8.91956848 C42.4442718,6.55167478 38.3077151,4.77956629 33.969,3.66693364 C29.2394144,4.82614419 24.7195582,6.69815859 20.5689999,9.21688743 L12.4619999,14.5686286 L5.76199988,19.490909 C5.11287283,19.9830615 4.54744599,20.5741024 4.08699988,21.2417873 C3.2356775,22.2804954 2.98285215,23.6766835 3.41699987,24.9417565 C3.95299988,26.2301387 7.06849989,26.7587057 11.1219999,26.1640678 C11.6109703,26.1059898 12.1010807,26.2630668 12.4619999,26.5935285 C12.8118749,26.9189315 13.0064688,27.3746829 12.9979999,27.8488752 C12.860612,31.9577906 11.3268346,35.9019454 8.6429999,39.0478891 C6.36163647,41.2709179 5.81805308,44.7016076 7.30299989,47.5049616 C8.67332751,51.7652873 12.5909591,54.7319882 17.1184999,54.9379354 C19.3875626,55.0296926 21.6553374,54.7277885 23.8185,54.0459785 C24.0519159,53.9527563 24.3052952,53.9186837 24.5555,53.9468722 L24.5555,53.9468722 Z" id="path-1"></path>
    </defs>
    <g id="Adquirencia-Móvil---Flujo-Principal" stroke="none" stroke-width="1" fill="none" fill-rule="evenodd">
        <g id="Adquirencia-Móvil-|-Confirmación---004Q" transform="translate(-146.000000, -231.000000)">
            <g id="Popup" transform="translate(40.000000, 197.719569)">
                <g id="Ícono" transform="translate(100.000000, 23.667180)">
                    <g id="Shape-Mask" transform="translate(6.700000, 9.910632)">
                        <mask id="mask-2" fill="white">
                            <use xlink:href="#path-1"></use>
                        </mask>
                        <use id="Mask" fill="#717171" fill-rule="nonzero" xlink:href="#path-1"></use>
                        <rect id="Rectangle" fill="#E1111C" fill-rule="nonzero" mask="url(#mask-2)" x="-6.7" y="-9.91063174" width="80.4" height="79.2850539"></rect>
                    </g>
                </g>
            </g>
        </g>
    </g>
</svg>