<?xml version="1.0" encoding="UTF-8"?>
<svg width="19px" height="23px" viewBox="0 0 19 23" version="1.1" xmlns="http://www.w3.org/2000/svg" xmlns:xlink="http://www.w3.org/1999/xlink">
    <title>Mask</title>
    <g id="Adquirencia-Móvil---Flujo-Principal" stroke="none" stroke-width="1" fill="none" fill-rule="evenodd">
        <g id="Adquirencia-Móvil-|-Beneficios-Cuenta---002L" transform="translate(-43.000000, -329.000000)">
            <g id="Contenerdor" transform="translate(16.000000, 152.000000)">
                <g id="Beneficio-2-Copy" transform="translate(24.000000, 176.000000)">
                    <g id="04-iconos/01-24x24_/General-icons/Concesionario-Copy-4" transform="translate(3.015000, 1.005000)">
                        <g id="Mask" transform="translate(-0.000000, -0.000000)">
                            <g id="Capa_5" transform="translate(0.000000, 0.000000)">
                                <path d="M10.34145,10.84395 L10.34145,10.48215 C10.6714067,10.4603867 10.9837647,10.3255048 11.22585,10.10025 C11.440052,9.8687996 11.5523056,9.56100734 11.5374,9.24600004 C11.5424956,9.04825141 11.5011919,8.85205921 11.4168,8.67315004 C11.3313935,8.50295994 11.2075211,8.35500126 11.055,8.24100003 C10.8237837,8.093826 10.573579,7.97886707 10.3113,7.89930003 C10.0630977,7.83183775 9.8307913,7.71568457 9.62790004,7.55760003 C9.47217035,7.42917509 9.3833939,7.23682612 9.38670004,7.03500003 C9.37690106,6.83725335 9.44970418,6.64432507 9.58770004,6.50235003 C9.74182876,6.36533162 9.9448145,6.29646146 10.1505,6.31140003 C10.3701345,6.29815793 10.5816789,6.39637496 10.7133,6.57270003 C10.8102165,6.6920392 10.8758462,6.83366111 10.90425,6.98475003 L10.90425,6.98475003 C10.8993728,7.01470279 10.8993728,7.04524727 10.90425,7.07520003 L10.90425,7.03500003 C10.9328199,7.14873592 11.0289282,7.23283069 11.14545,7.24605003 L11.2359,7.24605003 C11.3562442,7.23686115 11.4573267,7.15195177 11.48715,7.03500003 L11.48715,7.03500003 C11.48715,7.03500003 11.48715,7.03500003 11.48715,6.96465003 C11.455273,6.72999855 11.3616292,6.50802795 11.2158,6.32145003 C11.0134234,6.07241634 10.7208161,5.91346918 10.40175,5.87925002 L10.40175,5.37675002 C10.4072983,5.3536282 10.4072983,5.32952185 10.40175,5.30640002 C10.3147197,5.30147304 10.2274804,5.30147304 10.14045,5.30640002 L9.94950004,5.30640002 C9.94950004,5.30640002 9.94950004,5.30640002 9.94950004,5.30640002 L9.94950004,5.82900002 C9.63538081,5.85173063 9.34125781,5.9916184 9.12540004,6.22095003 C8.92795475,6.45311381 8.8240519,6.75049095 8.83395004,7.05510003 C8.82277214,7.36168123 8.93083856,7.66066499 9.13545004,7.88925003 C9.41829518,8.1493244 9.76510278,8.32966436 10.14045,8.41185004 C10.3913154,8.48265745 10.6242634,8.60598289 10.82385,8.77365004 C10.9588992,8.90597062 11.0350026,9.08708126 11.0350026,9.27615004 C11.0350026,9.46521881 10.9588992,9.64632946 10.82385,9.77865004 C10.638971,9.91767544 10.4117929,9.9886686 10.18065,9.97965004 C9.94084921,9.99237147 9.70583227,9.90921163 9.52740004,9.74850004 C9.42727671,9.63379186 9.35809258,9.49542361 9.32640004,9.34650004 C9.33110196,9.32667501 9.33110196,9.30602506 9.32640004,9.28620004 C9.29657674,9.16924829 9.19549415,9.08433892 9.07515004,9.07515004 L9.07515004,9.07515004 C8.92208512,9.085731 8.80343476,9.21317027 8.8037992,9.36660004 L8.8037992,9.36660004 C8.8037992,9.36660004 8.8037992,9.42690004 8.8037992,9.45705004 C8.84896946,9.67626042 8.94927812,9.88033665 9.09525004,10.05 C9.3396645,10.2942622 9.66490751,10.4408002 10.0098,10.46205 L10.0098,10.84395 C10.0098,10.84395 10.0098,10.84395 10.0098,10.90425 L10.2108,10.90425 L10.4319,10.90425 L10.34145,10.84395 Z" id="Path"></path>
                                <path d="M17.3664001,4.71345002 C17.3609868,4.5619754 17.2365714,4.44200332 17.0850001,4.44209996 L9.14550004,4.44209996 C8.99392876,4.44200332 8.86951327,4.5619754 8.86410004,4.71345002 L8.30130003,12.6429001 C8.29313888,12.7231602 8.3186102,12.8032129 8.37165003,12.8640001 C8.42791871,12.9199203 8.5034001,12.9522694 8.58270004,12.9544501 L17.6277001,12.9544501 C17.7065759,12.9503919 17.7814143,12.9183183 17.8387501,12.8640001 C17.8917899,12.8032129 17.9172612,12.7231602 17.9091001,12.6429001 L17.3664001,4.71345002 Z M13.3464001,11.4369 L13.3464001,11.4369 L13.3464001,11.4369 C13.3201004,11.517752 13.2497692,11.5763614 13.1655001,11.58765 L13.0650001,11.58765 C12.986985,11.5746812 12.9218379,11.5210306 12.8941501,11.44695 C12.8941501,11.44695 12.8941501,11.44695 12.8941501,11.3766 L12.8941501,11.3766 L12.8941501,11.055 C12.5471204,11.0426396 12.2187718,10.8947023 11.9796,10.64295 C11.8316902,10.4745737 11.7311167,10.2699587 11.6881492,10.05 C11.6881492,10.05 11.6881492,9.98970004 11.6881492,9.95955004 L11.6881492,9.95955004 C11.6877848,9.80612028 11.8064351,9.678681 11.9595,9.66810004 L11.9595,9.66810004 C12.0770724,9.67588945 12.1773421,9.75610519 12.2107501,9.86910004 C12.2162983,9.89222186 12.2162983,9.91632822 12.2107501,9.93945004 C12.2404579,10.0860888 12.310004,10.2217039 12.4117501,10.3314 C12.587731,10.4961871 12.8245417,10.5799817 13.0650001,10.56255 C13.2949437,10.5744599 13.5220042,10.5070514 13.7082001,10.3716 C13.8633745,10.2349779 13.9483578,10.0354517 13.9393501,9.82890004 C13.9411877,9.64736935 13.8685415,9.47301861 13.7383501,9.34650004 C13.5385367,9.19815981 13.3087295,9.09526103 13.0650001,9.04500004 C12.6886125,8.95993025 12.3417038,8.77606863 12.0600001,8.51235004 C11.8550678,8.28796902 11.7467515,7.99190453 11.7585,7.68825003 C11.7480177,7.38050695 11.8518404,7.0797792 12.0499501,6.84405003 C12.2711539,6.62216532 12.5623341,6.48367715 12.8740501,6.45210003 L12.8740501,5.92950002 C12.8740501,5.92950002 12.8740501,5.92950002 12.8740501,5.87925002 C12.9071996,5.80716003 12.9692435,5.75241539 13.0449001,5.72850002 L13.0449001,5.72850002 C13.1406152,5.73030981 13.2231238,5.7963167 13.2459001,5.88930002 C13.2459001,5.88930002 13.2459001,5.88930002 13.2459001,5.95965002 L13.2459001,6.42195003 C13.5663288,6.4517436 13.8605442,6.61156434 14.0599501,6.86415003 C14.2075081,7.04970699 14.3013608,7.27217263 14.3313001,7.50735003 C14.3313001,7.50735003 14.3313001,7.50735003 14.3313001,7.57770003 L14.3313001,7.57770003 C14.3334423,7.7209214 14.2311952,7.84446995 14.0901001,7.86915003 L14.1705001,7.86915003 C14.0551637,7.85328893 13.9603309,7.77031026 13.9293001,7.65810003 L13.9293001,7.65810003 C13.9230671,7.62827217 13.9230671,7.5974779 13.9293001,7.56765003 L13.9293001,7.56765003 C13.9008962,7.41656111 13.8352665,7.2749392 13.7383501,7.15560003 C13.604452,6.98210152 13.3944947,6.88462133 13.1755501,6.89430003 C12.9705894,6.88474795 12.7695813,6.95294712 12.6127501,7.08525003 C12.4742165,7.2309654 12.4015554,7.42715014 12.4117501,7.62795003 C12.402718,7.81870696 12.4802681,8.00334998 12.6228001,8.13045003 C12.8247069,8.29234216 13.0571168,8.41196488 13.3062001,8.48220004 C13.5677463,8.55918364 13.8178527,8.67071756 14.0499001,8.81385004 C14.2112249,8.92677467 14.3451632,9.07445021 14.4418501,9.24600004 C14.5250249,9.42887232 14.5662314,9.62803682 14.5624501,9.82890004 C14.5792726,10.1411945 14.4665621,10.4466035 14.2509001,10.6731 C14.0112008,10.9019829 13.6974615,11.0374612 13.3665001,11.055 L13.3665001,11.42685 L13.3464001,11.4369 Z" id="Shape" fill="#727171" fill-rule="nonzero"></path>
                                <path d="M15.3765001,3.75870002 C15.1049949,3.75358244 14.884601,3.53759644 14.8740001,3.26625001 C14.8576285,2.30506088 14.0765639,1.53292269 13.1152501,1.52760001 L13.1152501,1.52760001 C12.1615649,1.53263419 11.3835805,2.29283611 11.3565,3.24615001 C11.3565,3.5236731 11.1315231,3.74865002 10.854,3.74865002 C10.576477,3.74865002 10.3515,3.5236731 10.3515,3.24615001 C10.3882962,1.76136361 11.5803598,0.564884914 13.0650001,0.522600002 L13.0650001,0.522600002 C14.5909413,0.505716534 15.8460386,1.72047138 15.8790001,3.24615001 C15.8816923,3.37942894 15.8313156,3.50831593 15.7389577,3.6044436 C15.6465997,3.70057126 15.5198301,3.75606108 15.3865501,3.75870002 L15.3765001,3.75870002 Z" id="Path" fill="#727171" fill-rule="nonzero"></path>
                                <path d="M5.10540002,21.5874001 L2.09040001,21.5874001 C1.03973916,21.5818702 0.190950001,20.7285755 0.190950001,19.6779001 L0.190950001,17.2056001 C0.199605703,16.5782598 0.500698324,15.9909433 1.005,15.6177001 L1.87935001,14.9644501 C3.01822295,14.1075727 4.40378021,13.6421947 5.82900002,13.6378501 L9.24600004,13.6378501 C9.9342573,13.6378501 10.4922,14.1957928 10.4922,14.8840501 C10.4922,15.5723073 9.9342573,16.1302501 9.24600004,16.1302501 L6.08025003,16.1302501 C5.92691387,16.1576788 5.8152789,16.291055 5.8152789,16.4468251 C5.8152789,16.6025951 5.92691387,16.7359713 6.08025003,16.7634001 L11.4168,16.7634001 C11.7387268,16.7634001 11.9997,17.0243733 11.9997,17.3463001 C12.0272451,18.3843164 11.4512092,19.3443763 10.52235,19.8085501 L8.63295004,20.7532501 C7.53702901,21.2992489 6.32979801,21.5847195 5.10540002,21.5874001 L5.10540002,21.5874001 Z M5.77875002,14.5524001 C4.55643098,14.5531189 3.36757249,14.9517569 2.39190001,15.6880501 L1.50750001,16.3413001 C1.24422571,16.5426186 1.08849023,16.8540895 1.0854,17.1855001 L1.0854,19.6578001 C1.0854,20.2128463 1.53535383,20.6628001 2.09040001,20.6628001 L5.10540002,20.6628001 C6.18647572,20.66088 7.25256526,20.4098331 8.22090003,19.9291501 L10.1103,18.9844501 C10.6176538,18.7320695 10.9701848,18.2482769 11.055,17.6880001 L6.08025003,17.6880001 C5.39199277,17.6880001 4.83405002,17.1300573 4.83405002,16.4418001 C4.83405002,15.7535428 5.39199277,15.1956001 6.08025003,15.1956001 L9.19575004,15.1956001 C9.36781435,15.1956001 9.50730004,15.0561144 9.50730004,14.8840501 C9.50730004,14.7119857 9.36781435,14.5725001 9.19575004,14.5725001 L5.77875002,14.5524001 Z" id="Shape" fill="#717171" fill-rule="nonzero"></path>
                            </g>
                        </g>
                    </g>
                </g>
            </g>
        </g>
    </g>
</svg>