<?xml version="1.0" encoding="UTF-8"?>
<svg width="14px" height="22px" viewBox="0 0 14 22" version="1.1" xmlns="http://www.w3.org/2000/svg" xmlns:xlink="http://www.w3.org/1999/xlink">
    <title>Mask</title>
    <g id="Adquirencia-Móvil---Flujo-Principal" stroke="none" stroke-width="1" fill="none" fill-rule="evenodd">
        <g id="006---CM-No-Clientes-|-Beneficios---002C" transform="translate(-45.000000, -473.000000)" fill="#717171" fill-rule="nonzero">
            <g id="Contenerdor" transform="translate(16.000000, 152.000000)">
                <g id="Beneficio-2-Copy-2" transform="translate(24.000000, 272.000000)">
                    <g id="Group-2-Copy" transform="translate(0.000000, 48.000000)">
                        <g id="04-iconos/01-24x24_/General-icons/Concesionario-Copy-4" transform="translate(5.000000, 1.000000)">
                            <g id="Mask" transform="translate(-0.000000, -0.000000)">
                                <g id="App-Davivienda-Móvil" transform="translate(0.000000, 0.000000)">
                                    <ellipse id="Oval" cx="7" cy="18" rx="1" ry="1"></ellipse>
                                    <path d="M11,0.499918581 L3,0.499918581 C2.33532339,0.494617738 1.69630662,0.756281135 1.22629388,1.22629388 C0.756281135,1.69630662 0.494617738,2.33532339 0.499918581,3 L0.499918581,19 C0.494617738,19.6646766 0.756281135,20.3036934 1.22629388,20.7737061 C1.69630662,21.2437189 2.33532339,21.5053823 3,21.5000814 L11,21.5000814 C11.6646766,21.5053823 12.3036934,21.2437189 12.7737061,20.7737061 C13.2437189,20.3036934 13.5053823,19.6646766 13.5000814,19 L13.5000814,3 C13.5053823,2.33532339 13.2437189,1.69630662 12.7737061,1.22629388 C12.3036934,0.756281135 11.6646766,0.494617738 11,0.499918581 Z M12.5,19 C12.5054357,19.3994663 12.3491465,19.7841636 12.066655,20.066655 C11.7841636,20.3491465 11.3994663,20.5054357 11,20.5001372 L3,20.5001372 C2.60053369,20.5054357 2.21583645,20.3491465 1.93334496,20.066655 C1.65085348,19.7841636 1.49456433,19.3994663 1.5,19 L1.5,3 C1.49456433,2.60053369 1.65085348,2.21583645 1.93334496,1.93334496 C2.21583645,1.65085348 2.60053369,1.49456433 3,1.49986281 L11,1.49986281 C11.3994663,1.49456433 11.7841636,1.65085348 12.066655,1.93334496 C12.3491465,2.21583645 12.5054357,2.60053369 12.5,3 L12.5,19 Z" id="Shape"></path>
                                    <path d="M11,2 L3,2 C2.44771525,2 2,2.44771525 2,3 L2,15 C2,15.5522847 2.44771525,16 3,16 L11,16 C11.5522847,16 12,15.5522847 12,15 L12,3 C12,2.44771525 11.5522847,2 11,2 Z M11,8.1 C10.83,8.52 10.27,8.56 9.9,8.53 C9.95738811,8.85713501 10.0986555,9.16378871 10.31,9.42 C10.6844037,9.8119809 10.7687499,10.3983874 10.52,10.88 C10.2981008,11.5349732 9.69130898,11.9820829 9,12 C8.70311728,12.0168466 8.40553309,11.9830302 8.12,11.9 C7.80152774,12.0266713 7.46269411,12.094438 7.12,12.1 L7,12.1 C6.64067556,12.0985063 6.28471296,12.0307039 5.95,11.9 C5.64213692,11.9912676 5.32011906,12.0251642 5,12 C4.30445627,11.9761986 3.69760158,11.5210576 3.48,10.86 C3.23973431,10.3803739 3.33228581,9.80092099 3.71,9.42 C3.92195411,9.16917938 4.06039264,8.8646146 4.11,8.54 C3.7,8.54 3.17,8.54 3.01,8.12 C2.9099463,7.83917361 2.95894997,7.52678626 3.14,7.29 C3.23232075,7.17859592 3.34007471,7.0809439 3.46,7 L4.26,6.4 L5.26,5.74 C5.79846081,5.40525691 6.38537335,5.15565043 7,5 C7.49586107,5.08699159 7.97084393,5.26680653 8.4,5.53 C8.41183114,5.48641187 8.43222818,5.44561779 8.46,5.41 C8.63265744,5.23706727 8.88039208,5.16199616 9.12,5.21 L9.21,5.21 C9.43,5.21 9.75,5.21 9.9,5.43 C9.96401613,5.55211911 9.96401613,5.69788089 9.9,5.82 C9.83754742,6.02467314 9.80060133,6.23627347 9.79,6.45 L10.48,6.98 C10.5914172,7.06460648 10.6892179,7.16577962 10.77,7.28 C10.9898158,7.49132786 11.0778478,7.80518114 11,8.1 L11,8.1 Z" id="Shape"></path>
                                </g>
                            </g>
                        </g>
                    </g>
                </g>
            </g>
        </g>
    </g>
</svg>