<?xml version="1.0" encoding="UTF-8"?>
<svg width="20px" height="18px" viewBox="0 0 20 18" version="1.1" xmlns="http://www.w3.org/2000/svg" xmlns:xlink="http://www.w3.org/1999/xlink">
    <title>Mask</title>
    <g id="Adquirencia-Móvil---Flujo-Principal" stroke="none" stroke-width="1" fill="none" fill-rule="evenodd">
        <g id="006---CM-No-Clientes-|-Info-Personal---006D-Copy-26" transform="translate(-298.000000, -267.000000)" fill="#717171" fill-rule="nonzero">
            <g id="Box" transform="translate(16.000000, 152.000000)">
                <g id="Tabs" transform="translate(16.000000, 64.000000)">
                    <g id="Tabs---Action-Copy-2" transform="translate(0.000000, 48.000000)">
                        <g id="Tab---A-Copy" transform="translate(264.000000, 0.000000)">
                            <g id="04-iconos/01-24x24_/General-icons/ATM" transform="translate(2.000000, 3.000000)">
                                <g id="Mask" transform="translate(-0.000000, -0.000000)">
                                    <g id="Capa_5" transform="translate(0.000000, 0.000000)">
                                        <path d="M17.4700001,13.5000001 L3.93000002,13.5000001 L3.00000001,1 C3.00000001,1 3.00000001,1 3.00000001,0.920000004 L3.00000001,0.830000003 C3.00000001,0.830000003 3.00000001,0.770000003 2.94000001,0.730000003 C2.88000001,0.690000003 2.94000001,0.730000003 2.89000001,0.730000003 L2.79000001,0.660000003 L2.73000001,0.660000003 C2.69356254,0.654202081 2.65643748,0.654202081 2.62,0.660000003 L0.620000001,0.660000003 C0.343857627,0.660000003 0.120000001,0.883857629 0.120000001,1.16 C0.120000001,1.43614238 0.343857627,1.66000001 0.620000001,1.66000001 L2.00000001,1.66000001 L3.00000001,14.0000001 C2.9957602,14.0298503 2.9957602,14.0601499 3.00000001,14.0900001 C2.99654471,14.1165548 2.99654471,14.1434453 3.00000001,14.1700001 C3.01646974,14.2022092 3.03660303,14.2324091 3.06000001,14.2600001 L3.06000001,14.3200001 C3.0854141,14.3486971 3.11593015,14.3724318 3.15000001,14.3900001 L3.21000001,14.3900001 C3.27245967,14.4048773 3.33754036,14.4048773 3.40000001,14.3900001 L17.4000001,14.3900001 C17.6761424,14.3900001 17.9000001,14.1661424 17.9000001,13.8900001 C17.9000001,13.6138577 17.6761424,13.3900001 17.4000001,13.3900001 L17.4700001,13.5000001 Z" id="Path"></path>
                                        <path d="M4.00000002,16.0000001 C4.00000002,16.8284272 4.67157289,17.5000001 5.50000002,17.5000001 C6.32842715,17.5000001 7.00000002,16.8284272 7.00000002,16.0000001 C7.00000002,15.1715729 6.32842715,14.5000001 5.50000002,14.5000001 C4.67157289,14.5000001 4.00000002,15.1715729 4.00000002,16.0000001 Z M5.49999919,15.5000001 C5.7761424,15.5000001 5.99999919,15.7238577 5.99999919,16.0000001 C5.99999919,16.2761424 5.7761424,16.5000001 5.49999919,16.5000001 C5.22385765,16.5000001 4.99999919,16.2761424 4.99999919,16.0000001 C4.99952291,15.7351614 5.20563808,15.51589 5.47000002,15.5000001 L5.49999919,15.5000001 Z" id="Shape"></path>
                                        <path d="M14.0000001,16.0000001 C14.0000001,16.8284272 14.6715729,17.5000001 15.5000001,17.5000001 C16.3284272,17.5000001 17.0000001,16.8284272 17.0000001,16.0000001 C17.0000001,15.1715729 16.3284272,14.5000001 15.5000001,14.5000001 C14.6715729,14.5000001 14.0000001,15.1715729 14.0000001,16.0000001 Z M15.4999992,15.5000001 C15.7761424,15.5000001 15.9999992,15.7238577 15.9999992,16.0000001 C15.9999992,16.2761424 15.7761424,16.5000001 15.4999992,16.5000001 C15.2238577,16.5000001 14.9999992,16.2761424 14.9999992,16.0000001 C14.9995229,15.7351614 15.2056381,15.51589 15.4700001,15.5000001 L15.4999992,15.5000001 Z" id="Shape"></path>
                                        <path d="M20,4.00000002 C20.0038003,3.96677499 20.0038003,3.93322504 20,3.90000002 C20,3.90000002 20,3.84000002 20,3.82000002 C19.9893143,3.79003156 19.9722555,3.76273744 19.9500001,3.74000002 C19.9320244,3.71186228 19.9081378,3.68797573 19.8800001,3.67000002 C19.8568916,3.66541926 19.8331086,3.66541926 19.8100001,3.67000002 L19.7200001,3.67000002 L4.43000002,3.67000002 L4.36000002,3.67000002 L4.26000002,3.67000002 L4.18000002,3.67000002 L4.11000002,3.73000002 L4.05000002,3.81000002 C4.04828977,3.83997564 4.04828977,3.87002439 4.05000002,3.90000002 C4.04078786,3.92929282 4.04078786,3.96070722 4.05000002,3.99000002 C4.03302553,3.99154838 4.01626429,3.99490062 4.00000002,4.00000002 L4.00000002,4.00000002 C4.00000002,4.00000002 4.00000002,4.00000002 4.00000002,4.00000002 L4.67000002,12.0000001 C4.66531648,12.0298173 4.66531648,12.0601828 4.67000002,12.0900001 C4.66739217,12.116603 4.66739217,12.1433971 4.67000002,12.1700001 C4.68289097,12.2041749 4.7034121,12.2349566 4.73000002,12.2600001 L4.73000002,12.3200001 L4.83000002,12.3900001 L4.89000002,12.3900001 C4.95245967,12.4048773 5.01754037,12.4048773 5.08000002,12.3900001 L17.4700001,12.3900001 C17.5700494,12.3875694 17.667272,12.3563193 17.7500001,12.3000001 L17.7500001,12.3000001 C17.8225182,12.2364956 17.874695,12.1530127 17.9000001,12.0600001 L17.9000001,12.0600001 L19.9000001,4.06000002 L19.9000001,4.06000002 C19.9000001,4.06000002 20,4.00000002 20,4.00000002 C20,4.00000002 20,4.00000002 20,4.00000002 Z M7.07000003,11.5 L5.60000002,11.5 L5.47000002,10 L7.07000003,10 L7.07000003,11.5 Z M7.07000003,9.00000004 L5.39000002,9.00000004 L5.25000002,7.33000003 L7.07000003,7.33000003 L7.07000003,9.00000004 Z M7.07000003,6.33000003 L5.17000002,6.33000003 L5.00000002,4.50000002 L7.07000003,4.50000002 L7.07000003,6.33000003 Z M10,11.5 L8.10000003,11.5 L8.10000003,10 L10,10 L10,11.5 Z M10,9.00000004 L8.10000003,9.00000004 L8.10000003,7.33000003 L10,7.33000003 L10,9.00000004 Z M10,6.33000003 L8.10000003,6.33000003 L8.10000003,4.50000002 L10,4.50000002 L10,6.33000003 Z M12.7500001,11.5 L11,11.5 L11,10 L12.7500001,10 L12.7500001,11.5 Z M12.7500001,9.00000004 L11,9.00000004 L11,7.33000003 L12.7500001,7.33000003 L12.7500001,9.00000004 Z M12.7500001,6.33000003 L11,6.33000003 L11,4.50000002 L12.7500001,4.50000002 L12.7500001,6.33000003 Z M15.5000001,11.5 L13.7200001,11.5 L13.7200001,10 L15.4700001,10 L15.5000001,11.5 Z M15.5000001,9.00000004 L13.7200001,9.00000004 L13.7200001,7.33000003 L15.4700001,7.33000003 L15.5000001,9.00000004 Z M15.5000001,6.33000003 L13.7200001,6.33000003 L13.7200001,4.50000002 L15.4700001,4.50000002 L15.5000001,6.33000003 Z M17.1100001,11.5 L16.5000001,11.5 L16.5000001,10 L17.5000001,10 L17.1100001,11.5 Z M17.7400001,9.00000004 L16.4700001,9.00000004 L16.4700001,7.33000003 L18.1200001,7.33000003 L17.7400001,9.00000004 Z M18.4000001,6.33000003 L16.5000001,6.33000003 L16.5000001,4.50000002 L18.8600001,4.50000002 L18.4000001,6.33000003 Z" id="Shape"></path>
                                    </g>
                                </g>
                            </g>
                        </g>
                    </g>
                </g>
            </g>
        </g>
    </g>
</svg>