<?xml version="1.0" encoding="UTF-8"?>
<svg width="14px" height="22px" viewBox="0 0 14 22" version="1.1" xmlns="http://www.w3.org/2000/svg" xmlns:xlink="http://www.w3.org/1999/xlink">
    <title>Group 6</title>
    <defs>
        <filter color-interpolation-filters="auto" id="filter-1">
            <feColorMatrix in="SourceGraphic" type="matrix" values="0 0 0 0 0.431373 0 0 0 0 0.431373 0 0 0 0 0.431373 0 0 0 1.000000 0"></feColorMatrix>
        </filter>
    </defs>
    <g id="Adquirencia-Móvil---Flujo-Principal" stroke="none" stroke-width="1" fill="none" fill-rule="evenodd">
        <g id="006---CM-No-Clientes-|-Info-Personal---006D-Copy-26" transform="translate(-173.000000, -265.000000)">
            <g id="Box" transform="translate(16.000000, 152.000000)">
                <g id="Tabs" transform="translate(16.000000, 64.000000)">
                    <g id="Tabs---Action-Copy-2" transform="translate(0.000000, 48.000000)">
                        <g id="Group-6" transform="translate(136.000000, 0.000000)" filter="url(#filter-1)">
                            <g transform="translate(5.849561, 1.490404)">
                                <path d="M10.507907,0 C11.4965127,0 12.3008782,0.80432014 12.3008782,1.79292582 L12.3008782,1.79292582 L12.3008782,8.26879231 C12.3008782,9.52143469 12.2571671,10.7901907 12.1710159,12.0397465 L12.1710159,12.0397465 L11.6204742,20.0224877 C11.5820284,20.5795203 11.1145968,21.015814 10.5562933,21.015814 L10.5562933,21.015814 L1.74458491,21.015814 C1.18628142,21.015814 0.718804387,20.5795203 0.680404001,20.0224877 L0.680404001,20.0224877 L0.129862298,12.0397465 C0.0437110776,10.7899638 0,9.52120774 0,8.26879231 L0,8.26879231 L0,1.79292582 C0,0.80432014 0.80432014,0 1.79292582,0 L1.79292582,0 Z M10.2267455,1.06474711 L2.07408732,1.06474711 C1.50047139,1.06474711 1.03377417,1.53140187 1.03377417,2.10506027 L1.03377417,2.10506027 L1.03377417,8.28915103 C1.03377417,9.44619157 1.0741553,10.618306 1.15381357,11.7730112 L1.15381357,11.7730112 L1.66883227,19.6820366 C1.68182557,19.8704819 1.83995317,20.0181215 2.02886555,20.0181215 L2.02886555,20.0181215 L2.32884901,20.0181215 C2.32884901,20.0181215 2.22431075,19.3792896 2.7534755,19.3792896 L2.7534755,19.3792896 L9.54735733,19.3792896 C10.0902573,19.3792896 9.99332542,20.0181215 9.99332542,20.0181215 L9.99332542,20.0181215 L10.2719673,20.0181215 C10.4608797,20.0181215 10.6190497,19.8704819 10.632043,19.6820366 L10.632043,19.6820366 L11.1470617,11.7730112 C11.2266775,10.6185183 11.2670587,9.44640388 11.2670587,8.28915103 L11.2670587,8.28915103 L11.2670587,2.10506027 C11.2670587,1.53140187 10.8003614,1.06474711 10.2267455,1.06474711 L10.2267455,1.06474711 Z" id="Combined-Shape" fill="#000000" fill-rule="nonzero"></path>
                                <path d="M3.40358438,16.2490215 C3.81665842,16.2490215 4.15152109,16.5838841 4.15152109,16.9969582 C4.15152109,17.4100322 3.81665842,17.7448949 3.40358438,17.7448949 C2.99051034,17.7448949 2.65564767,17.4100322 2.65564767,16.9969582 C2.65564767,16.5838841 2.99051034,16.2490215 3.40358438,16.2490215 Z M6.15699604,16.2490215 C6.57007008,16.2490215 6.90493275,16.5838841 6.90493275,16.9969582 C6.90493275,17.4100322 6.57007008,17.7448949 6.15699604,17.7448949 C5.743922,17.7448949 5.40905933,17.4100322 5.40905933,16.9969582 C5.40905933,16.5838841 5.743922,16.2490215 6.15699604,16.2490215 Z M8.91036468,16.2490215 C9.32343872,16.2490215 9.65830139,16.5838841 9.65830139,16.9969582 C9.65830139,17.4100322 9.32343872,17.7448949 8.91036468,17.7448949 C8.49729064,17.7448949 8.16242797,17.4100322 8.16242797,16.9969582 C8.16242797,16.5838841 8.49729064,16.2490215 8.91036468,16.2490215 Z M3.40358438,13.8398051 C3.81665842,13.8398051 4.15152109,14.1746678 4.15152109,14.5877418 C4.15152109,15.0008158 3.81665842,15.3356785 3.40358438,15.3356785 C2.99051034,15.3356785 2.65564767,15.0008158 2.65564767,14.5877418 C2.65564767,14.1746678 2.99051034,13.8398051 3.40358438,13.8398051 Z M8.91036468,13.8398051 C9.32343872,13.8398051 9.65830139,14.1746678 9.65830139,14.5877418 C9.65830139,15.0008158 9.32343872,15.3356785 8.91036468,15.3356785 C8.49729064,15.3356785 8.16242797,15.0008158 8.16242797,14.5877418 C8.16242797,14.1746678 8.49729064,13.8398051 8.91036468,13.8398051 Z M6.15697453,13.8398051 C6.57004857,13.8398051 6.90491124,14.1746678 6.90491124,14.5877418 C6.90491124,15.0008158 6.57004857,15.3356785 6.15697453,15.3356785 C5.74390049,15.3356785 5.40903782,15.0008158 5.40903782,14.5877418 C5.40903782,14.1746678 5.74390049,13.8398051 6.15697453,13.8398051 Z M3.40358438,11.4305887 C3.81665842,11.4305887 4.15152109,11.7654514 4.15152109,12.1785254 C4.15152109,12.5915995 3.81665842,12.9264621 3.40358438,12.9264621 C2.99051034,12.9264621 2.65564767,12.5915995 2.65564767,12.1785254 C2.65564767,11.7654514 2.99051034,11.4305887 3.40358438,11.4305887 Z M8.91036468,11.4305887 C9.32343872,11.4305887 9.65830139,11.7654514 9.65830139,12.1785254 C9.65830139,12.5915995 9.32343872,12.9264621 8.91036468,12.9264621 C8.49729064,12.9264621 8.16242797,12.5915995 8.16242797,12.1785254 C8.16242797,11.7654514 8.49729064,11.4305887 8.91036468,11.4305887 Z M6.15697453,11.4305887 C6.57004857,11.4305887 6.90491124,11.7654514 6.90491124,12.1785254 C6.90491124,12.5915995 6.57004857,12.9264621 6.15697453,12.9264621 C5.74390049,12.9264621 5.40903782,12.5915995 5.40903782,12.1785254 C5.40903782,11.7654514 5.74390049,11.4305887 6.15697453,11.4305887 Z" id="Combined-Shape-Copy" fill="#000000"></path>
                                <path d="M9.33398393,2.06912146 C9.84858003,2.06912146 10.2672304,2.5438694 10.2672304,3.12741938 L10.2672304,3.12741938 L10.2672304,8.17122219 C10.2672304,8.75477216 9.84858003,9.2295201 9.33398393,9.2295201 L9.33398393,9.2295201 L2.97996513,9.2295201 C2.46536903,9.2295201 2.04671862,8.75477216 2.04671862,8.17122219 L2.04671862,8.17122219 L2.04671862,3.12741938 C2.04671862,2.5438694 2.46536903,2.06912146 2.97996513,2.06912146 L2.97996513,2.06912146 Z M8.94141556,3.09000745 L3.33142711,3.09000745 C3.16708951,3.09000745 3.03339647,3.24180283 3.03339647,3.42839211 L3.03339647,3.42839211 L3.03339647,7.87764123 L3.04128132,7.95513672 C3.07221988,8.10450276 3.19056631,8.2160259 3.33142711,8.2160259 L3.33142711,8.2160259 L8.94141556,8.2160259 L9.00966933,8.20707341 C9.14122274,8.17194571 9.2394462,8.03757491 9.2394462,7.87764123 L9.2394462,7.87764123 L9.2394462,3.42839211 C9.2394462,3.24180283 9.10575316,3.09000745 8.94141556,3.09000745 L8.94141556,3.09000745 Z" id="Combined-Shape-Copy-2" fill="#000000" fill-rule="nonzero"></path>
                            </g>
                        </g>
                    </g>
                </g>
            </g>
        </g>
    </g>
</svg>