<?xml version="1.0" encoding="UTF-8"?>
<svg width="16px" height="20px" viewBox="0 0 16 20" version="1.1" xmlns="http://www.w3.org/2000/svg" xmlns:xlink="http://www.w3.org/1999/xlink">
    <title>Mask</title>
    <g id="Adquirencia-Móvil---Flujo-Principal" stroke="none" stroke-width="1" fill="none" fill-rule="evenodd">
        <g id="006---CM-No-Clientes-|-Beneficios---002C" transform="translate(-44.000000, -578.000000)" fill="#717171" fill-rule="nonzero">
            <g id="Contenerdor" transform="translate(16.000000, 152.000000)">
                <g id="Beneficio-2-Copy-3" transform="translate(24.000000, 424.000000)">
                    <g id="04-iconos/01-24x24_/General-icons/Concesionario-Copy-4" transform="translate(4.000000, 2.000000)">
                        <g id="Mask" transform="translate(-0.000000, -0.000000)">
                            <g id="Carta" transform="translate(0.000000, 0.000000)">
                                <path d="M14,1 C14.5522847,1 15,1.44771525 15,2 L15,18 C15,18.5522847 14.5522847,19 14,19 L2,19 C1.44771525,19 1,18.5522847 1,18 L1,2 C1,1.44771525 1.44771525,1 2,1 L14,1 M14,0 L2,0 C0.8954305,0 0,0.8954305 0,2 L0,18 C0,19.1045695 0.8954305,20 2,20 L14,20 C15.1045695,20 16,19.1045695 16,18 L16,2 C16,0.8954305 15.1045695,0 14,0 Z" id="Shape"></path>
                                <path d="M14,11.37 L2,11.37 C1.90014894,11.3726997 1.80344835,11.3349127 1.7318818,11.2652295 C1.66031525,11.1955463 1.61999998,11.0998875 1.61999998,11 C1.61999998,10.7901318 1.7901318,10.62 2,10.62 L14,10.62 C14.2098682,10.62 14.38,10.7901318 14.38,11 C14.38,11.0998875 14.3396847,11.1955463 14.2681182,11.2652295 C14.1965516,11.3349127 14.0998511,11.3726997 14,11.37 L14,11.37 Z" id="Path"></path>
                                <path d="M14,13.37 L2,13.37 C1.90014894,13.3726997 1.80344835,13.3349127 1.7318818,13.2652295 C1.66031525,13.1955463 1.61999998,13.0998875 1.61999998,13 C1.61999998,12.7901318 1.7901318,12.62 2,12.62 L14,12.62 C14.2098682,12.62 14.38,12.7901318 14.38,13 C14.38,13.0998875 14.3396847,13.1955463 14.2681182,13.2652295 C14.1965516,13.3349127 14.0998511,13.3726997 14,13.37 Z" id="Path"></path>
                                <path d="M14,15.37 L2,15.37 C1.90014894,15.3726997 1.80344835,15.3349127 1.7318818,15.2652295 C1.66031525,15.1955463 1.61999998,15.0998875 1.61999998,15 C1.61999998,14.7901318 1.7901318,14.62 2,14.62 L14,14.62 C14.2098682,14.62 14.38,14.7901318 14.38,15 C14.38,15.0998875 14.3396847,15.1955463 14.2681182,15.2652295 C14.1965516,15.3349127 14.0998511,15.3726997 14,15.37 L14,15.37 Z" id="Path"></path>
                                <path d="M8,17.37 L2,17.37 C1.90014894,17.3726997 1.80344835,17.3349127 1.7318818,17.2652295 C1.66031525,17.1955463 1.61999998,17.0998875 1.61999998,17 C1.61999998,16.7901318 1.7901318,16.62 2,16.62 L8,16.62 C8.2098682,16.62 8.38000002,16.7901318 8.38000002,17 C8.38000002,17.0998875 8.33968475,17.1955463 8.2681182,17.2652295 C8.19655165,17.3349127 8.09985106,17.3726997 8,17.37 Z" id="Path"></path>
                                <path d="M14,3.37 L2,3.37 C1.90014894,3.37269967 1.80344835,3.33491272 1.7318818,3.2652295 C1.66031525,3.19554628 1.61999998,3.09988754 1.61999998,3 C1.61999998,2.7901318 1.7901318,2.62 2,2.62 L14,2.62 C14.2098682,2.62 14.38,2.7901318 14.38,3 C14.38,3.09988754 14.3396847,3.19554628 14.2681182,3.2652295 C14.1965516,3.33491272 14.0998511,3.37269967 14,3.37 L14,3.37 Z" id="Path"></path>
                                <path d="M14,5.37 L2,5.37 C1.90014894,5.37269967 1.80344835,5.33491272 1.7318818,5.2652295 C1.66031525,5.19554628 1.61999998,5.09988754 1.61999998,5 C1.61999998,4.7901318 1.7901318,4.62 2,4.62 L14,4.62 C14.2098682,4.62 14.38,4.7901318 14.38,5 C14.38,5.09988754 14.3396847,5.19554628 14.2681182,5.2652295 C14.1965516,5.33491272 14.0998511,5.37269967 14,5.37 Z" id="Path"></path>
                                <path d="M14,7.37 L2,7.37 C1.90014894,7.37269967 1.80344835,7.33491272 1.7318818,7.2652295 C1.66031525,7.19554628 1.61999998,7.09988754 1.61999998,7 C1.61999998,6.89921773 1.6600356,6.80256325 1.73129942,6.73129942 C1.80256325,6.6600356 1.89921773,6.62 2,6.62 L14,6.62 C14.1007823,6.62 14.1974368,6.6600356 14.2687006,6.73129942 C14.3399644,6.80256325 14.38,6.89921773 14.38,7 C14.38,7.09988754 14.3396847,7.19554628 14.2681182,7.2652295 C14.1965516,7.33491272 14.0998511,7.37269967 14,7.37 Z" id="Path"></path>
                                <path d="M14,9.37 L2,9.37 C1.90014894,9.37269967 1.80344835,9.33491272 1.7318818,9.2652295 C1.66031525,9.19554628 1.61999998,9.09988754 1.61999998,9 C1.61999998,8.89921773 1.6600356,8.80256325 1.73129942,8.73129942 C1.80256325,8.6600356 1.89921773,8.62 2,8.62 L14,8.62 C14.1007823,8.62 14.1974368,8.6600356 14.2687006,8.73129942 C14.3399644,8.80256325 14.38,8.89921773 14.38,9 C14.38,9.09988754 14.3396847,9.19554628 14.2681182,9.2652295 C14.1965516,9.33491272 14.0998511,9.37269967 14,9.37 Z" id="Path"></path>
                            </g>
                        </g>
                    </g>
                </g>
            </g>
        </g>
    </g>
</svg>