<?xml version="1.0" encoding="UTF-8"?>
<svg width="24px" height="24px" viewBox="0 0 24 24" version="1.1" xmlns="http://www.w3.org/2000/svg" xmlns:xlink="http://www.w3.org/1999/xlink">
    <title>Icon</title>
    <g id="Adquirencia-Móvil---Flujo-Principal" stroke="none" stroke-width="1" fill="none" fill-rule="evenodd">
        <g id="Adquirencia-Móvil-|-Info-Personal---002D" transform="translate(-45.000000, -392.000000)">
            <g id="Formulario" transform="translate(16.000000, 152.000000)">
                <g id="Textfield" transform="translate(16.000000, 208.000000)">
                    <g id="Icon" transform="translate(13.000000, 32.000000)">
                        <rect id="Rectangle" fill="#D8D8D8" opacity="0" x="0" y="0" width="24" height="24"></rect>
                        <path d="M20.1818659,8.00019654 L17.6961523,8.00019654 L18.5168333,5.00742328 C18.633838,4.58101424 18.3752591,4.1418613 17.9384015,4.02745888 C17.5015439,3.91305643 17.0522518,4.16661674 16.936146,4.59302578 L16.002655,8.00019654 L10.1918202,8.00019654 L11.0125012,5.00742328 C11.1295059,4.58101424 10.8709269,4.1418613 10.4340694,4.02745888 C9.99706198,3.91393534 9.54881854,4.16661674 9.43256289,4.59302578 L8.4981731,8.00019654 L5.45455227,8.00019654 C5.0028631,8.00019654 4.63641812,8.35775904 4.63641812,8.8001346 C4.63641812,9.24265664 5.0028631,9.60021914 5.45455227,9.60021914 L8.05876871,9.60021914 L6.74235325,14.4001405 L3.81813414,14.4001405 C3.36659482,14.4001405 3,14.757703 3,15.2000786 C3,15.6424542 3.36659482,16.0000167 3.81813414,16.0000167 L6.30384771,16.0000167 L5.48316675,18.9927899 C5.366162,19.4191989 5.62474095,19.8583519 6.06159852,19.9727543 C6.13201107,19.9912111 6.20317272,20 6.27268641,20 C6.63358832,20 6.9649768,19.7647499 7.06235591,19.4071874 L7.9974948,16.0000167 L13.8081798,16.0000167 L12.9874988,18.9927899 C12.870644,19.4191989 13.1290731,19.8583519 13.5660805,19.9727543 C13.6363432,19.9912111 13.7075049,20 13.7779174,20 C14.1388193,20 14.470058,19.7647499 14.5674371,19.4071874 L15.5018269,16.0000167 L18.5454477,16.0000167 C18.9971369,16.0000167 19.3637317,15.6424542 19.3637317,15.2000786 C19.3637317,14.757703 18.9971369,14.4001405 18.5454477,14.4001405 L15.9412313,14.4001405 L17.2576468,9.60021914 L20.1818659,9.60021914 C20.633555,9.60021914 21,9.24265664 21,8.8001346 C21,8.35775904 20.633555,8.00019654 20.1818659,8.00019654 Z M14.3114183,14.4466448 L8.37644649,14.4466448 L9.67910265,9.57719764 L15.6142227,9.57719764 L14.3114183,14.4466448 Z" id="NumberSign" fill="#6E6E6E" fill-rule="nonzero"></path>
                    </g>
                </g>
            </g>
        </g>
    </g>
</svg>