<?xml version="1.0" encoding="UTF-8"?>
<svg width="20px" height="20px" viewBox="0 0 20 20" version="1.1" xmlns="http://www.w3.org/2000/svg" xmlns:xlink="http://www.w3.org/1999/xlink">
    <title>Icon</title>
    <g id="HU58:-solicitar-Crédito-Libranza-Movil" stroke="none" stroke-width="1" fill="none" fill-rule="evenodd">
        <g id="003---Tracking-de-estado-de-solcitud-de-libranza---004B" transform="translate(-34.000000, -290.000000)" fill="#E1111C">
            <g id="Card" transform="translate(16.000000, 200.000000)">
                <g id="Shape-Mask" transform="translate(18.000000, 90.000000)">
                    <g id="Capa_6" transform="translate(-0.000000, 0.000000)">
                        <path d="M10,1 C14.9705628,1 19,5.02943727 19,10 C19,14.9705628 14.9705628,19 10,19 C5.02943727,19 1,14.9705628 1,10 C1,5.02943727 5.02943727,1 10,1 M10,0 C4.47715252,0 0,4.47715252 0,10 C0,15.5228476 4.47715252,20 10,20 C15.5228476,20 20,15.5228476 20,10 C20,7.34783513 18.9464317,4.80429599 17.0710679,2.9289322 C15.1957041,1.05356841 12.652165,0 10,0 L10,0 Z" id="Shape" fill-rule="nonzero"></path>
                        <g id="Group" transform="translate(4.000000, 5.000000)">
                            <path d="M0.811822263,5.89969122 L3.84909765,9.10275593 C4.03910515,9.30313497 4.35557597,9.31154276 4.55595501,9.12153526 C4.56683111,9.1112221 4.57723798,9.10042511 4.58714409,9.08917701 L11.6867028,1.0278289 C11.8629728,0.827679228 11.8537711,0.525112566 11.6656641,0.336044366 C11.4941142,0.163617789 11.2152661,0.162907164 11.0428395,0.33445714 C11.0351882,0.342069579 11.0278192,0.349960716 11.0207477,0.358114566 L4.22554999,8.19330916 L4.22554999,8.19330916 L1.40651852,5.30031649 C1.24762735,5.13725659 0.986634447,5.13387717 0.823574551,5.29276833 C0.821898842,5.2944012 0.820237066,5.2960483 0.818589402,5.29770946 C0.654061769,5.46358488 0.651065092,5.73015913 0.811822263,5.89969122 Z" id="Path-2"></path>
                        </g>
                    </g>
                    <rect id="Rectangle" fill-rule="nonzero" opacity="0" x="-1.99999997" y="-1.99999996" width="24" height="24"></rect>
                </g>
            </g>
        </g>
    </g>
</svg>