<?xml version="1.0" encoding="UTF-8"?>
<svg width="20px" height="20px" viewBox="0 0 20 20" version="1.1" xmlns="http://www.w3.org/2000/svg" xmlns:xlink="http://www.w3.org/1999/xlink">
    <title>Capa_5</title>
    <g id="Adquirencia-Móvil---Flujo-Principal" stroke="none" stroke-width="1" fill="none" fill-rule="evenodd">
        <g id="006---CM-No-Clientes-|-Beneficios---002C" transform="translate(-42.000000, -426.000000)" fill="#717171" fill-rule="nonzero">
            <g id="Contenerdor" transform="translate(16.000000, 152.000000)">
                <g id="Beneficio-2-Copy-2" transform="translate(24.000000, 272.000000)">
                    <g id="04-iconos/01-24x24_/General-icons/Concesionario-Copy-4" transform="translate(2.000000, 2.000000)">
                        <g id="Mask" transform="translate(-0.000000, -0.000000)">
                            <g id="Capa_5" transform="translate(0.000000, 0.000000)">
                                <path d="M16.9300001,19.5 L3.07000001,19.5 C2.38839363,19.5 1.73470407,19.229233 1.25273558,18.7472645 C0.770767083,18.265296 0.500000002,17.6116065 0.500000002,16.9300001 L0.500000002,3.07000001 C0.500000002,1.6506282 1.6506282,0.500000002 3.07000001,0.500000002 L16.9300001,0.500000002 C17.6116065,0.500000002 18.265296,0.770767083 18.7472645,1.25273558 C19.229233,1.73470407 19.5,2.38839363 19.5,3.07000001 L19.5,16.9300001 C19.5,17.6116065 19.229233,18.265296 18.7472645,18.7472645 C18.265296,19.229233 17.6116065,19.5 16.9300001,19.5 L16.9300001,19.5 Z M3.07000001,1.50000001 C2.20518316,1.50545643 1.50545643,2.20518316 1.50000001,3.07000001 L1.50000001,16.9300001 C1.50545643,17.7948169 2.20518316,18.4945437 3.07000001,18.5 L16.9300001,18.5 C17.7948169,18.4945437 18.4945437,17.7948169 18.5,16.9300001 L18.5,3.07000001 C18.4945437,2.20518316 17.7948169,1.50545643 16.9300001,1.50000001 L3.07000001,1.50000001 Z" id="Shape"></path>
                                <path d="M10,6.32000003 C7.96759215,6.32000003 6.32000003,7.96759215 6.32000003,10 C6.32000003,12.0324079 7.96759215,13.6800001 10,13.6800001 C12.0324079,13.6800001 13.6800001,12.0324079 13.6800001,10 C13.6800001,7.96759215 12.0324079,6.32000003 10,6.32000003 L10,6.32000003 Z M12.6600001,9.75000004 L11.55,9.75000004 C11.5092495,9.50815888 11.4134492,9.27892238 11.27,9.08000004 L12.0600001,8.30000003 C12.4012617,8.71200011 12.6103628,9.21732779 12.6600001,9.75000004 L12.6600001,9.75000004 Z M10,11.12 C9.54116283,11.1240429 9.12543728,10.8502202 8.9479752,10.4270712 C8.77051312,10.0039221 8.86655374,9.51547273 9.19101324,9.19101324 C9.51547273,8.86655374 10.0039221,8.77051312 10.4270712,8.9479752 C10.8502202,9.12543728 11.1240429,9.54116283 11.12,10 C11.1145698,10.6162957 10.6162957,11.1145698 10,11.12 L10,11.12 Z M10.92,8.73000004 C10.7210777,8.5865509 10.4918412,8.49075057 10.25,8.45000004 L10.25,7.34000003 C10.7826723,7.38963726 11.288,7.59873837 11.7,7.94000003 L10.92,8.73000004 Z M9.75000004,8.45000004 C9.50815888,8.49075057 9.27892238,8.5865509 9.08000004,8.73000004 L8.30000003,7.94000003 C8.71200011,7.59873837 9.21732779,7.38963726 9.75000004,7.34000003 L9.75000004,8.45000004 Z M9.08000004,11.27 C9.27892238,11.4134492 9.50815888,11.5092495 9.75000004,11.55 L9.75000004,12.6600001 C9.21732779,12.6103628 8.71200011,12.4012617 8.30000003,12.0600001 L9.08000004,11.27 Z M10.25,11.55 C10.4918412,11.5092495 10.7210777,11.4134492 10.92,11.27 L11.7,12.0600001 C11.288,12.4012617 10.7826723,12.6103628 10.25,12.6600001 L10.25,11.55 Z M7.94000003,8.30000003 L8.73000004,9.08000004 C8.5865509,9.27892238 8.49075057,9.50815888 8.45000004,9.75000004 L7.34000003,9.75000004 C7.38963726,9.21732779 7.59873837,8.71200011 7.94000003,8.30000003 Z M7.34000003,10.25 L8.45000004,10.25 C8.49075057,10.4918412 8.5865509,10.7210777 8.73000004,10.92 L7.94000003,11.7 C7.59873837,11.288 7.38963726,10.7826723 7.34000003,10.25 L7.34000003,10.25 Z M12.0600001,11.7 L11.27,10.92 C11.4134492,10.7210777 11.5092495,10.4918412 11.55,10.25 L12.6600001,10.25 C12.6103628,10.7826723 12.4012617,11.288 12.0600001,11.7 L12.0600001,11.7 Z" id="Shape"></path>
                                <path d="M17,8.31000003 L17,5.69000002 C17.0159736,5.37114396 16.8079774,5.08410908 16.5,5.00000001 L16.5,4.89000002 C16.5,4.12232421 15.8776759,3.50000001 15.1100001,3.50000001 L4.89000002,3.50000001 C4.12232421,3.50000001 3.50000001,4.12232421 3.50000001,4.89000002 L3.50000001,15.1100001 C3.50000001,15.8776759 4.12232421,16.5 4.89000002,16.5 L15.1100001,16.5 C15.8776759,16.5 16.5,15.8776759 16.5,15.1100001 L16.5,15 C16.7932615,14.9195123 16.9974283,14.6540953 17,14.3500001 L17,11.69 C16.9974283,11.3859048 16.7932615,11.1204879 16.5,11.04 L16.5,9.00000001 C16.8079774,8.91589098 17.0159736,8.6288561 17,8.31000003 Z M15.1100001,15.5 L4.89000002,15.5 C4.67682826,15.4947342 4.50526591,15.3231718 4.50000002,15.1100001 L4.50000002,4.89000002 C4.50526591,4.67682826 4.67682826,4.50526591 4.89000002,4.50000002 L15.1100001,4.50000002 C15.3231718,4.50526591 15.4947342,4.67682826 15.5,4.89000002 L15.5,5.00000002 C15.2067387,5.08048783 15.0025718,5.34590477 15,5.65000002 L15,8.27000003 C15.0025718,8.57409528 15.2067387,8.83951223 15.5,8.92000004 L15.5,11 C15.2067387,11.0804879 15.0025718,11.3459048 15,11.65 L15,14.2700001 C15.0025718,14.5740953 15.2067387,14.8395123 15.5,14.9200001 L15.5,15.0700001 C15.5082602,15.1794639 15.4711702,15.2875118 15.3974217,15.3688243 C15.3236731,15.4501368 15.2197481,15.4975669 15.1100001,15.5 Z" id="Shape"></path>
                            </g>
                        </g>
                    </g>
                </g>
            </g>
        </g>
    </g>
</svg>