<?xml version="1.0" encoding="UTF-8"?>
<svg width="20px" height="20px" viewBox="0 0 20 20" version="1.1" xmlns="http://www.w3.org/2000/svg" xmlns:xlink="http://www.w3.org/1999/xlink">
    <title>Mask</title>
    <g id="Adquirencia-Móvil---Flujo-Principal" stroke="none" stroke-width="1" fill="none" fill-rule="evenodd">
        <g id="Adquirencia-Móvil-|-Beneficios-Cuenta---002L" transform="translate(-42.000000, -442.000000)" fill="#717171" fill-rule="nonzero">
            <g id="Contenerdor" transform="translate(16.000000, 152.000000)">
                <g id="Beneficio-2-Copy-3" transform="translate(24.000000, 288.000000)">
                    <g id="04-iconos/01-24x24_/General-icons/Concesionario-Copy-4" transform="translate(2.000000, 2.000000)">
                        <g id="Mask" transform="translate(-0.000000, -0.000000)">
                            <g id="seguro" transform="translate(0.000000, 0.000000)">
                                <path d="M13.36,19.3000257 C12.7549616,19.3033297 12.1943047,18.9829543 11.89,18.46 L10.89,16.69 C10.6164027,16.2094568 10.5831087,15.6286603 10.8,15.12 L11.15,14.29 C11.6256123,13.1868369 12.442203,12.2651059 13.48,11.66 L15.92,10.26 C16.1807621,10.1009463 16.495917,10.0574767 16.79,10.14 C17.2343947,10.2646261 17.5612285,10.642861 17.6200847,11.100632 C17.678941,11.5584029 17.4584158,12.0070125 17.06,12.24 L14.84,13.52 C14.804954,13.5387093 14.779507,13.571427 14.77,13.61 C14.7560705,13.6453437 14.7560705,13.6846563 14.77,13.72 C14.7887739,13.7531534 14.8221761,13.7754216 14.86,13.78 C14.8951309,13.7950081 14.9348691,13.7950081 14.97,13.78 L18.97,11.47 L19.25,11.47 C19.4026805,11.5113053 19.5323828,11.6121848 19.61,11.75 C20.0858575,12.5117951 20.0858575,13.4782049 19.61,14.24 L18.61,15.69 C18.0426997,16.5499114 17.2825394,17.2655578 16.39,17.78 L14.2,19.07 C13.9458461,19.220971 13.6556116,19.30044 13.36,19.3000257 Z M16.46,11.11 L16.4,11.11 L14,12.53 C13.1494608,13.023562 12.4799184,13.7772353 12.09,14.68 L11.74,15.51 C11.6296894,15.7232456 11.6296894,15.9767544 11.74,16.19 L12.74,17.96 C12.9348104,18.2829701 13.3504844,18.3935217 13.68,18.21 L15.87,17 C16.6264346,16.5651022 17.2703395,15.9588725 17.75,15.23 L18.75,13.78 C18.9584101,13.4645733 19.0203863,13.0744878 18.92,12.71 L15.5,14.71 C15.2388288,14.8679022 14.9241652,14.9113041 14.63,14.83 C14.3394661,14.750514 14.091715,14.5602125 13.94,14.3 C13.7820978,14.0388288 13.7386959,13.7241652 13.82,13.43 C13.8995371,13.1340349 14.0939183,12.8820593 14.36,12.73 L16.58,11.45 C16.6431179,11.4043851 16.6642265,11.319951 16.63,11.25 C16.6275954,11.2082593 16.6078787,11.1694164 16.5756044,11.1428375 C16.5433301,11.1162587 16.5014272,11.1043561 16.46,11.11 L16.46,11.11 Z" id="Shape"></path>
                                <path d="M6.65,19.3 C6.35405091,19.3030068 6.06313663,19.2233517 5.81,19.07 L3.64,17.82 C2.74544378,17.3082766 1.98470803,16.5920884 1.42,15.73 L0.42,14.28 C-0.0709997125,13.5479264 -0.0982224793,12.5990185 0.35,11.84 C0.423166191,11.6765015 0.566646343,11.5550952 0.74,11.51 L0.94,11.45 L1.2,11.57 L5.01,13.77 C5.04174545,13.7845505 5.07825455,13.7845505 5.11,13.77 C5.1484404,13.7671502 5.18258463,13.7443874 5.2,13.71 C5.21219056,13.6743466 5.21219056,13.6356534 5.2,13.6 C5.18703561,13.5632073 5.16246936,13.5316221 5.13,13.51 L3,12.24 C2.59270695,12.0115909 2.36589581,11.5578858 2.42761193,11.0950149 C2.48932805,10.632144 2.82709035,10.2537154 3.28,10.14 C3.57083053,10.0579218 3.88274622,10.1014449 4.14,10.26 L6.58,11.66 C7.62007603,12.2623226 8.43742537,13.18491 8.91,14.29 L9.27,15.12 C9.48384773,15.6302045 9.44685118,16.2110502 9.17,16.69 L8.17,18.46 C7.85856855,19.0004725 7.27332088,19.3238989 6.65,19.3 L6.65,19.3 Z M6.31,18.21 C6.6293477,18.4009522 7.04227717,18.308702 7.25,18 L8.25,16.23 C8.3540038,16.0152636 8.3540038,15.7647364 8.25,15.55 L8,14.68 C7.58990359,13.7615722 6.88642433,13.005332 6,12.53 L3.6,11.12 C3.5326857,11.0912419 3.45443929,11.1118331 3.41,11.17 C3.36663636,11.2296151 3.36663636,11.3103849 3.41,11.37 L5.64,12.65 C5.90083845,12.8056842 6.09090237,13.056712 6.17,13.35 C6.24968148,13.6431459 6.2101364,13.9559115 6.06,14.22 C5.9043158,14.4808384 5.65328797,14.6709024 5.36,14.75 C5.06916947,14.8320782 4.75725378,14.7885551 4.5,14.63 L1.08,12.63 C0.975336835,12.9929727 1.03373657,13.383521 1.24,13.7 L2.24,15.15 C2.71359574,15.9118964 3.3657475,16.5468862 4.14,17 L6.31,18.21 Z" id="Shape"></path>
                                <path d="M16.14,3.75 C16.0912847,2.05107176 14.6996264,0.69930171 13,0.69999973 C12.5368154,0.701217066 12.0794878,0.80360383 11.66,1 C10.5728808,1.50957279 9.87617358,2.59939409 9.87,3.8 L9.87,3.8 C9.8577481,2.59552472 9.15324718,1.50568905 8.06,1 C7.64051218,0.80360383 7.18318463,0.701217066 6.72,0.69999973 C5.04293038,0.703673413 3.66476996,2.02459394 3.59,3.69999973 C3.58003912,3.88986945 3.58003912,4.08013055 3.59,4.27 C3.59,4.4 3.59,4.53 3.65,4.65 L3.65,4.85 L3.65,4.91 C4.45,8.81 8.91,11.05 9.8,11.74 C10.69,11.05 15.15,8.81 15.94,4.91 L15.94,4.81 C15.94,4.72 15.94,4.62 15.99,4.53 L15.99,4.33 C15.99,4.33 15.99,4.26 15.99,4.23 C15.9850712,4.19684886 15.9850712,4.16315114 15.99,4.13 C15.9949213,4.03339597 15.9949213,3.93660403 15.99,3.84 C15.99,3.84 16.14,3.78 16.14,3.75 Z" id="Path"></path>
                            </g>
                        </g>
                    </g>
                </g>
            </g>
        </g>
    </g>
</svg>