<?xml version="1.0" encoding="UTF-8"?>
<svg width="24px" height="12px" viewBox="0 0 24 12" version="1.1" xmlns="http://www.w3.org/2000/svg" xmlns:xlink="http://www.w3.org/1999/xlink">
    <title>Group 28</title>
    <defs>
        <filter color-interpolation-filters="auto" id="filter-1">
            <feColorMatrix in="SourceGraphic" type="matrix" values="0 0 0 0 0.431373 0 0 0 0 0.431373 0 0 0 0 0.431373 0 0 0 1.000000 0"></feColorMatrix>
        </filter>
        <filter color-interpolation-filters="auto" id="filter-2">
            <feColorMatrix in="SourceGraphic" type="matrix" values="0 0 0 0 0.431373 0 0 0 0 0.431373 0 0 0 0 0.431373 0 0 0 1.000000 0"></feColorMatrix>
        </filter>
        <polygon id="path-3" points="0 0 11.9440591 0 11.9440591 10.3764111 0 10.3764111"></polygon>
    </defs>
    <g id="Adquirencia-Móvil---Flujo-Principal" stroke="none" stroke-width="1" fill="none" fill-rule="evenodd">
        <g id="Adquirencia-Móvil-|-Ejemplo-Tarifas---004J" transform="translate(-48.000000, -510.000000)">
            <g id="Formulario" transform="translate(16.000000, 152.000000)">
                <g id="Group-Copy" transform="translate(16.000000, 184.000000)" filter="url(#filter-1)">
                    <g transform="translate(16.000000, 168.000000)" filter="url(#filter-2)" id="Group-28">
                        <g transform="translate(0.951801, 6.811794)">
                            <g id="Group-3" transform="translate(10.152338, 0.000000)">
                                <mask id="mask-4" fill="white">
                                    <use xlink:href="#path-3"></use>
                                </mask>
                                <g id="Clip-2"></g>
                                <path d="M9.26448734,0.552747034 C9.10657624,0.552780282 8.94861527,0.550369806 8.79078729,0.554043704 C8.73345122,0.555390246 8.67468548,0.565298132 8.61966013,0.58165612 C8.48848038,0.620655956 8.43036298,0.73349947 8.46535644,0.867821156 C8.48063386,0.926487149 8.50390742,0.985119895 8.50621816,1.04445085 C8.50806342,1.0915798 8.49740745,1.15618056 8.46642037,1.18233006 C8.44088595,1.20387473 8.37046681,1.19411646 8.33178283,1.17468304 C8.04310757,1.02953915 7.76354225,0.864762345 7.46913173,0.732917631 C7.11657055,0.575039779 6.75551453,0.434334489 6.39189841,0.303520462 C6.03433342,0.174884174 5.67139889,0.19232272 5.30883008,0.306313289 C4.8088309,0.463509558 4.3339173,0.677642928 3.87045762,0.91912273 C3.18042983,1.27864935 2.51518838,1.68025124 1.88663604,2.13840788 C1.43084001,2.47062132 0.987994044,2.82093826 0.546361632,3.1719534 C0.42863067,3.26552973 0.336749982,3.39155606 0.232517684,3.50223846 C0.208113695,3.5281386 0.184341417,3.56865122 0.155665067,3.57315632 C0.115185697,3.57953992 0.0595785145,3.5714773 0.0300210942,3.5464416 C-0.0151296109,3.50820646 -0.00492249276,3.44842666 0.0313510119,3.40352532 C0.0956359075,3.32392974 0.15576481,3.23780095 0.232816916,3.17223601 C0.533943526,2.91602737 0.836981892,2.66171386 1.14671972,2.41604482 C1.83137796,1.87297294 2.56351427,1.39955549 3.32166709,0.966883399 C3.82396037,0.680236267 4.34211292,0.423528908 4.88611575,0.224589848 C5.19706712,0.110881886 5.51024611,0.00239385182 5.8492255,-3.48767844e-06 C6.11971413,-0.00186188475 6.37342918,0.069837302 6.62591405,0.152707797 C7.15851283,0.327508852 7.6610056,0.570202204 8.15452143,0.832960689 C8.19554939,0.854787962 8.23755816,0.873390186 8.2409827,0.801624503 C8.25887009,0.427435541 8.5176222,0.347590609 8.76689864,0.340525421 C9.09907883,0.331099629 9.43180761,0.334058696 9.76412079,0.340724909 C9.86486205,0.342753033 9.9675317,0.366126336 10.0648484,0.394852558 C10.2101586,0.437759027 10.2962375,0.569520621 10.3051479,0.718870376 C10.3162195,0.904942483 10.2593489,1.07919495 10.2262672,1.25810212 C10.1807009,1.50466886 10.1413353,1.75253227 10.1071232,2.00091102 C10.1026513,2.03346075 10.1360655,2.08300018 10.166105,2.10672259 C10.4854681,2.35884173 10.8104668,2.60382919 11.1282838,2.85784347 C11.4102098,3.08316477 11.6791025,3.32356402 11.8396236,3.65707412 C12.0757837,4.14774725 11.9005172,4.55039645 11.4240243,4.76684055 C11.0619875,4.93128487 10.6778407,4.959529 10.2858142,4.93487565 C10.0883547,4.92245754 10.0839327,4.90580032 10.1172306,5.10884551 C10.2093772,5.67073572 10.4442241,6.17379371 10.7903684,6.62295678 C10.96236,6.84613359 11.1105627,7.07988325 11.1997337,7.34771204 C11.3359006,7.75669498 11.3406551,8.16739018 11.2002823,8.57625674 C11.0226718,9.0935116 10.6718893,9.47065963 10.221014,9.76166224 C9.86905129,9.98881218 9.48269359,10.126974 9.07080146,10.2058547 C8.73554584,10.2700565 8.39901017,10.2724171 8.06230826,10.2560758 C7.87874637,10.2471819 7.69706299,10.2006847 7.51424919,10.1731221 C7.47937209,10.167869 7.44190166,10.1658076 7.40767291,10.1725736 C7.19965716,10.2137179 6.99277184,10.2605975 6.78450673,10.300362 C6.4571475,10.3628515 6.1255824,10.3796584 5.79320272,10.375918 C5.44160573,10.3719615 5.09202025,10.3415063 4.74707285,10.2704389 C4.60149674,10.2404492 4.45853059,10.1939354 4.3117908,10.1749674 C4.22468119,10.1636964 4.13266751,10.1929213 4.04261546,10.2013663 C3.81458445,10.2227613 3.58675293,10.254031 3.3582232,10.2609798 C2.79011562,10.2782189 2.24785831,10.1618178 1.74167502,9.90070513 C1.23921549,9.64150418 0.833923082,9.27943409 0.592177296,8.75720867 C0.424873652,8.39575367 0.376697384,8.0168435 0.447598621,7.62441804 C0.460831301,7.55123932 0.48234272,7.47920765 0.504602217,7.40807368 C0.524384742,7.34490259 0.574173535,7.32118018 0.635532612,7.3378374 C0.699983748,7.35534244 0.720165248,7.40617855 0.70560265,7.46820258 C0.658739676,7.66777335 0.611527598,7.86707814 0.631010892,8.07477804 C0.67215522,8.51336826 0.857163393,8.8835176 1.15810714,9.20160066 C1.48011346,9.54192659 1.87353635,9.76452156 2.31506902,9.90343146 C2.65469675,10.0102903 3.00506356,10.0552249 3.3623127,10.0505536 C3.65125393,10.04678 3.93549059,10.0127839 4.21748301,9.95177397 C4.2591593,9.94276378 4.30633813,9.94696964 4.34874588,9.9557471 C4.58362597,10.0043223 4.81571323,10.0732287 5.0528043,10.1026531 C5.35107159,10.1396913 5.65399359,10.1682347 5.95354092,10.1585097 C6.2918886,10.1475212 6.62943833,10.0951391 6.9659075,10.0502045 C7.10721126,10.0313363 7.2434447,9.97002709 7.38469858,9.9565783 C7.49697688,9.94587246 7.61439199,9.97300278 7.72778409,9.99310116 C8.1012416,10.0592479 8.47514795,10.0664461 8.85134842,10.0203312 C9.18605545,9.97931989 9.50724719,9.89127934 9.80970372,9.74344237 C10.3139088,9.49697537 10.7184697,9.14521215 10.9512884,8.62195604 C11.0924259,8.30473743 11.1338861,7.97285647 11.0591448,7.63342823 C10.9916847,7.32706507 10.8516443,7.05210459 10.6564789,6.80603657 C10.3576797,6.42932077 10.1346857,6.01146063 9.99607506,5.55179121 C9.92676972,5.32191494 9.87616635,5.08590443 9.88407936,4.84209727 C9.88752053,4.73601971 9.91081071,4.71281265 10.0194816,4.7138932 C10.2657159,4.7163868 10.5126483,4.73079978 10.7580181,4.71723462 C11.0201283,4.70275514 11.2744252,4.63758918 11.4920995,4.48019342 C11.7340946,4.30519288 11.7893693,4.05460314 11.6591371,3.7834163 C11.5378652,3.53086493 11.3558826,3.32680569 11.1410344,3.15409926 C10.7507368,2.84037168 10.3545211,2.5339254 9.95827215,2.22766198 C9.89909081,2.18191281 9.87541828,2.13637976 9.88013948,2.06032509 C9.90357928,1.6832768 9.98633341,1.31739983 10.0722461,0.951339986 C10.0908151,0.87219326 10.0891028,0.785848355 10.0826028,0.70394205 C10.0764852,0.626923193 10.0114855,0.59320978 9.94314433,0.582254583 C9.85069843,0.567442625 9.75690599,0.557185634 9.66337953,0.553894088 C9.53057062,0.549239376 9.39746249,0.552713786 9.26448734,0.552747034" id="Fill-1" fill="#E82031" mask="url(#mask-4)"></path>
                            </g>
                            <path d="M0.495122701,5.75881118 C0.495155949,5.53993998 0.494208383,5.32105216 0.495604796,5.10218096 C0.496170011,5.0150381 0.521571439,4.93447834 0.603361376,4.8914555 C0.734325019,4.82256576 0.882161993,4.91911779 0.880399852,5.0670545 C0.875645396,5.46594669 0.879036686,5.86495524 0.87921955,6.26391392 C0.87930267,6.40927392 0.878006,6.41904881 1.02471254,6.43886459 C1.5080545,6.50416355 1.98243613,6.48574419 2.41889849,6.23429 C2.71866194,6.06160019 2.87092089,5.79272409 2.88284027,5.45003755 C2.88862542,5.28418019 2.81724208,5.13749027 2.71658394,5.00774018 C2.51174337,4.74371827 2.24128799,4.5800054 1.91911543,4.50134077 C1.45542301,4.38811491 0.988422415,4.37356893 0.519377075,4.46634731 C0.443538519,4.48134214 0.367999195,4.49971162 0.294105644,4.52232022 C0.159135624,4.56363079 0.0537230245,4.53940967 0.0152219078,4.45313126 C-0.0281167845,4.35606389 0.0222538475,4.22643017 0.151438726,4.17790479 C0.297663174,4.12296257 0.452764823,4.08126965 0.607550617,4.06132089 C1.18920674,3.9863634 1.76389741,4.02278652 2.32078382,4.2186834 C2.68134112,4.34552429 2.99688071,4.5396424 3.19643486,4.88063329 C3.34600073,5.1361936 3.38980489,5.40912596 3.3278806,5.7020237 C3.22637463,6.18207411 2.92415084,6.48684137 2.48514502,6.66263986 C1.94895546,6.87737169 1.39112149,6.90465163 0.826787546,6.80405998 C0.589580104,6.76178522 0.495554925,6.63404663 0.495172573,6.39050546 C0.49482347,6.17994624 0.495089453,5.9693704 0.495122701,5.75881118" id="Fill-4" fill="#EB202F"></path>
                            <path d="M5.30716882,4.03002792 C5.45151476,4.03664426 5.60305888,4.1415249 5.7420519,4.26808319 C5.98567619,4.48991346 6.17344394,4.75706067 6.34661585,5.03444825 C6.63412743,5.49498212 6.87796783,5.97802484 7.0747624,6.48419151 C7.11534151,6.58854017 7.10503465,6.69169191 7.02833165,6.77978233 C6.91337689,6.91179329 6.74454384,6.88813738 6.67237918,6.72818153 C6.56570316,6.49175541 6.47520226,6.24708381 6.35471172,6.01807199 C6.17093372,5.66873586 5.97580155,5.32460304 5.76818478,4.98898169 C5.68396774,4.85284799 5.56226365,4.73618096 5.44311965,4.62639626 C5.31654474,4.50976248 5.19912963,4.5146333 5.05955477,4.61660474 C4.87752229,4.74957988 4.74828754,4.93026582 4.62500417,5.11404382 C4.2973457,5.60245609 4.04388002,6.13011755 3.81242447,6.66908331 C3.74536337,6.82528214 3.6593177,6.87515406 3.53387321,6.83144964 C3.41722281,6.79082065 3.3382257,6.64803736 3.38259508,6.51805454 C3.44136081,6.34599644 3.51209581,6.17704702 3.59029497,6.01276894 C3.79367263,5.58539989 4.0202906,5.17063182 4.29729583,4.78553753 C4.45420949,4.56738116 4.62101442,4.3575534 4.83591249,4.19154643 C4.97819706,4.08164535 5.11775529,4.02678625 5.30716882,4.03002792" id="Fill-6" fill="#EB202F"></path>
                            <path d="M8.42644584,6.85800477 C8.19010285,6.85103932 8.04692058,6.74341574 7.91727024,6.61521167 C7.57032796,6.27207629 7.32788397,5.85567906 7.11109076,5.42536757 C6.95229859,5.11016046 6.8133222,4.78467973 6.67452866,4.45993046 C6.64590218,4.39291923 6.6472986,4.30813698 6.65258502,4.23279715 C6.65928448,4.13712619 6.74970226,4.05553574 6.83769294,4.0461432 C6.92137801,4.03721613 6.99104907,4.08547552 7.0321934,4.18430502 C7.09790795,4.34211638 7.15841921,4.5021886 7.2276913,4.65840405 C7.41698845,5.08532425 7.61348379,5.50945162 7.88119622,5.89409706 C7.97503853,6.02891746 8.08776568,6.15328139 8.20631122,6.26745482 C8.31611255,6.3731999 8.42137553,6.36575236 8.54198244,6.2715277 C8.69753294,6.15002309 8.80369361,5.98737416 8.90539907,5.82256411 C9.21405634,5.32241532 9.45116404,4.78823726 9.65326165,4.2376181 C9.66838946,4.19640727 9.68542903,4.15512995 9.70755554,4.11739354 C9.78525598,3.98478412 9.93866198,3.97874962 10.0258547,4.10539103 C10.1005961,4.21396219 10.09516,4.33175965 10.0451718,4.44618244 C9.87633872,4.83270639 9.71433812,5.22272137 9.52986191,5.60173128 C9.3724994,5.92505089 9.18481477,6.23420688 8.94351783,6.50381444 C8.84877782,6.60967589 8.73525273,6.70167294 8.61910104,6.78427746 C8.55484939,6.82996013 8.46749043,6.84315956 8.42644584,6.85800477" id="Fill-8" fill="#EB202F"></path>
                            <path d="M11.9554905,5.75517718 C11.9554905,5.8353546 11.9492731,5.91609722 11.9566708,5.99557643 C11.9781157,6.22615091 12.160863,6.41807465 12.3958262,6.4640898 C12.6254697,6.50907427 12.8639572,6.39844174 12.9706332,6.19336843 C13.1068667,5.93144115 13.1223436,5.65766097 13.0229821,5.38276699 C12.9415912,5.15761192 12.7832478,5.00889388 12.533722,4.99541184 C12.3069711,4.98315997 12.1436738,5.09927841 12.0303981,5.28789398 C11.9438869,5.43194069 11.9426401,5.59352569 11.9554905,5.75517718 M11.9539444,6.49007307 C11.9521989,6.52694504 11.9494227,6.55894618 11.9493895,6.59094732 C11.9490237,6.86502673 11.9471951,7.13913939 11.95047,7.41318555 C11.9513345,7.48538346 11.9279944,7.51442553 11.8552147,7.50963783 C11.7890513,7.50528235 11.721774,7.51339485 11.6562756,7.50544859 C11.6340493,7.50275551 11.6104599,7.47072111 11.5974101,7.44669948 C11.5880841,7.42952691 11.595116,7.40337741 11.595116,7.38121766 C11.5950828,6.64201616 11.5957477,5.90279805 11.5943846,5.16359655 C11.5941851,5.053363 11.5871365,4.94291334 11.5779102,4.83302889 C11.5734716,4.7800483 11.5865547,4.75306759 11.6426439,4.75451388 C11.7172523,4.75644226 11.8086509,4.73195515 11.8610995,4.76671587 C11.9015955,4.79356358 11.8929511,4.89415523 11.9067157,4.96184804 C11.9124676,4.99009217 11.9196824,5.01803706 11.9292744,5.05918139 C11.9641682,5.01760484 11.9882397,4.98821366 12.0130426,4.95945419 C12.3289978,4.59322811 13.0861698,4.58248903 13.341514,5.2084314 C13.4942218,5.58275336 13.4830339,5.9617134 13.2922572,6.3227528 C13.0862363,6.71266804 12.5892295,6.86898324 12.1974357,6.67017717 C12.1132686,6.62747019 12.043132,6.55715079 11.9539444,6.49007307" id="Fill-10" fill="#000000"></path>
                            <path d="M19.1223636,5.90318871 C19.1223636,5.87273359 19.1194045,5.841946 19.1229455,5.81190649 C19.1319058,5.73608455 19.1007857,5.70158981 19.024598,5.71129821 C18.8960282,5.7276562 18.7648485,5.73420604 18.6400357,5.76574172 C18.5574478,5.7866048 18.4737628,5.83190512 18.4088794,5.8875788 C18.2938083,5.98630856 18.2672099,6.12210978 18.3109808,6.26597363 C18.3456584,6.37994757 18.4239241,6.4583296 18.5434837,6.4785111 C18.7219919,6.50865036 18.8765117,6.4594434 19.0000777,6.32158081 C19.1081335,6.20102377 19.1266027,6.05578014 19.1223636,5.90318871 M18.1566106,5.10844653 C18.1323396,5.04362967 18.1061901,4.98330128 18.088602,4.92056241 C18.0838808,4.90373895 18.099607,4.86864575 18.1154996,4.86043351 C18.4295264,4.69826667 18.7570352,4.64610065 19.0911105,4.78358089 C19.332208,4.88280937 19.4330158,5.09666013 19.4471628,5.34038417 C19.4655821,5.65768591 19.4576525,5.9764838 19.463953,6.29458348 C19.4661972,6.40772623 19.4752406,6.52085235 19.4845002,6.63372911 C19.4888723,6.68704219 19.471999,6.71310857 19.4163585,6.70822113 C19.4026271,6.70700758 19.3886796,6.70833749 19.3748651,6.70787202 C19.3142209,6.70587715 19.2384156,6.72471211 19.1974541,6.69522118 C19.1609977,6.66897193 19.1634913,6.58901063 19.1479313,6.53300447 C19.1445234,6.52076923 19.1374249,6.50954805 19.1278329,6.48873484 C19.0812525,6.52919758 19.0428844,6.56764883 18.9995291,6.59930087 C18.766727,6.7692976 18.5112997,6.80944449 18.2476103,6.69380814 C17.8654085,6.52622189 17.8708446,6.02008847 18.0753194,5.78746925 C18.2264479,5.61554414 18.4274318,5.5419332 18.6424628,5.50238477 C18.7670761,5.47946031 18.8951472,5.47296034 19.0220379,5.46584528 C19.0859405,5.4622545 19.1027473,5.44458322 19.102764,5.37639169 C19.1027972,5.15358061 18.948161,4.96983586 18.6808476,4.97577062 C18.5931727,4.97771562 18.5038355,4.98855445 18.4189535,5.00996613 C18.3339219,5.03142767 18.2535118,5.07117559 18.1566106,5.10844653" id="Fill-12" fill="#000000"></path>
                            <path d="M15.8637844,5.93002811 C15.8637844,5.87084677 15.870168,5.82258739 15.8612243,5.77735356 C15.8563867,5.75293295 15.8258318,5.71549577 15.8060327,5.71494717 C15.6026218,5.7093449 15.4003579,5.72515429 15.2207359,5.83171395 C15.0109248,5.95616099 14.9752664,6.24699736 15.1438002,6.40796728 C15.2557626,6.51489266 15.5001017,6.51402821 15.6546881,6.40326269 C15.8211273,6.28400232 15.8787626,6.11610022 15.8637844,5.93002811 M15.8788457,6.4992495 C15.782942,6.56348452 15.6973784,6.63403666 15.600843,6.68287788 C15.3404451,6.8146561 15.021215,6.76446833 14.8355918,6.58476321 C14.6065966,6.36308255 14.6114508,5.84524586 15.0045412,5.63435416 C15.2385568,5.50879331 15.4916069,5.47564511 15.7505086,5.46473979 C15.8500862,5.46055055 15.853677,5.44937924 15.8459967,5.35040012 C15.8229725,5.05326326 15.5930464,4.93822538 15.3089261,4.9818633 C15.1718116,5.00292587 15.0394016,5.05475942 14.8963025,5.09507255 C14.8766862,5.04367123 14.8494561,4.98357557 14.8325496,4.92070371 C14.8278616,4.90331504 14.8482925,4.86707478 14.8666287,4.85739963 C15.1726095,4.69624686 15.4941337,4.65250919 15.8204124,4.77552658 C16.0600802,4.86587786 16.1700644,5.07346138 16.1880515,5.31510743 C16.208765,5.59335945 16.1989236,5.87378922 16.2055566,6.15320492 C16.2093635,6.31341013 16.2173596,6.47361534 16.2280821,6.63350469 C16.2317892,6.68857991 16.2154312,6.71218594 16.1605389,6.70816294 C16.1467742,6.70714888 16.1328267,6.70852867 16.1190288,6.7077141 C16.0560406,6.70405682 15.9780077,6.72084703 15.9348186,6.68959397 C15.8991768,6.66379356 15.9049952,6.58093969 15.8917791,6.52353712 C15.8900336,6.51595659 15.8843316,6.50927375 15.8788457,6.4992495" id="Fill-14" fill="#000000"></path>
                            <path d="M10.3672213,5.44314359 C10.3672546,5.06107486 10.3672213,4.67900614 10.3672712,4.29695404 C10.3672878,4.14828587 10.4535163,4.04704588 10.5826181,4.04377096 C10.7168567,4.04036305 10.8115136,4.13854422 10.8117962,4.29254869 C10.8132923,5.06774107 10.8131926,5.84295009 10.8120123,6.61814248 C10.8117962,6.75936311 10.7214615,6.85541642 10.5988597,6.85465625 C10.4624268,6.85380389 10.3675039,6.75271352 10.3673377,6.60594048 C10.3669054,6.2183526 10.3671881,5.83074809 10.3672213,5.44314359" id="Fill-16" fill="#EB202F"></path>
                            <path d="M16.8420851,5.68331508 C16.8420851,5.49223916 16.8401733,5.30112999 16.8431989,5.11008732 C16.8441797,5.04922696 16.8228844,5.02174753 16.7624729,5.02424113 C16.7431226,5.0250557 16.7235894,5.02562092 16.7043555,5.02384215 C16.653137,5.01913757 16.5645645,5.0255378 16.5578318,5.0052898 C16.5362705,4.94032332 16.5420889,4.8651996 16.5445659,4.79424849 C16.545048,4.78055034 16.5771987,4.75890593 16.5965158,4.75672819 C16.645756,4.75115916 16.69611,4.75242258 16.7458323,4.75483306 C16.8143729,4.75815785 16.8481196,4.73646357 16.8433319,4.65949458 C16.8371312,4.56018298 16.8441299,4.4601233 16.8409214,4.36054571 C16.8390762,4.30287716 16.863131,4.27351923 16.9175247,4.26123411 C16.9796152,4.2472201 17.0414564,4.2315437 17.1025495,4.21367293 C17.1584725,4.19731494 17.1845555,4.20822027 17.1828433,4.27376859 C17.1795351,4.40105833 17.1864507,4.52864731 17.1816297,4.65582069 C17.1786374,4.73466818 17.2109045,4.75789187 17.2845321,4.75539827 C17.3979408,4.75155813 17.5115989,4.75588037 17.6251074,4.75396861 C17.6736161,4.75315404 17.6931327,4.76971151 17.6958756,4.82056424 C17.7068474,5.02420788 17.7083769,5.02399177 17.5047332,5.02419126 C17.4216632,5.02425775 17.3385766,5.0258869 17.2555233,5.02520532 C17.2079787,5.02482297 17.1818458,5.04475511 17.1823113,5.09364621 C17.1856693,5.44781991 17.179319,5.80247571 17.1961258,6.1560177 C17.2079122,6.40403072 17.302353,6.47120819 17.5434837,6.45253947 C17.6584218,6.44364564 17.6582888,6.44364564 17.6630433,6.55728711 C17.6638579,6.57660416 17.6643233,6.59633682 17.6685292,6.61507203 C17.6830253,6.67947329 17.6593195,6.72279536 17.5935551,6.72583755 C17.4618101,6.73193855 17.3262915,6.75050752 17.1985862,6.72819815 C16.9876113,6.69134281 16.8576784,6.51353282 16.8481196,6.27296733 C16.8403063,6.07670473 16.8465237,5.87989354 16.8465237,5.68331508 C16.8450442,5.68331508 16.8435646,5.68331508 16.8420851,5.68331508" id="Fill-18" fill="#000000"></path>
                            <path d="M14.2409473,5.2691355 C14.2409473,5.71226407 14.2391519,6.15540926 14.2425765,6.59852121 C14.2431916,6.67952982 14.2242735,6.71816392 14.1367815,6.70863839 C14.055723,6.69979444 13.9471685,6.72777258 13.9003055,6.68509885 C13.858862,6.64736243 13.8829667,6.53460204 13.8829002,6.45497322 C13.882202,5.61857137 13.8824348,4.78215289 13.8825013,3.94573442 C13.8825179,3.83581672 13.8827673,3.83581672 13.991488,3.83533463 C14.2409473,3.83422082 14.2409473,3.83422082 14.2409473,4.08098704 L14.2409473,5.2691355 Z" id="Fill-20" fill="#000000"></path>
                        </g>
                    </g>
                </g>
            </g>
        </g>
    </g>
</svg>