<?xml version="1.0" encoding="UTF-8"?>
<svg width="38px" height="13px" viewBox="0 0 38 13" version="1.1" xmlns="http://www.w3.org/2000/svg" xmlns:xlink="http://www.w3.org/1999/xlink">
    <title>Logo</title>
    <defs>
        <linearGradient x1="0%" y1="50%" x2="100%" y2="50%" id="linearGradient-1">
            <stop stop-color="#272158" offset="0%"></stop>
            <stop stop-color="#164193" offset="100%"></stop>
        </linearGradient>
    </defs>
    <g id="Adquirencia-Móvil---Flujo-Principal" stroke="none" stroke-width="1" fill="none" fill-rule="evenodd">
        <g id="Adquirencia-Móvil-|-Tarifas---004I" transform="translate(-261.000000, -322.000000)" fill="url(#linearGradient-1)" fill-rule="nonzero">
            <g id="Box" transform="translate(16.000000, 152.000000)">
                <g id="Group-5-Copy" transform="translate(240.000000, 160.000000)">
                    <g id="Logo" transform="translate(5.580637, 10.474191)">
                        <path d="M13.985822,0.211822669 L9.16363286,11.7183984 L6.01760574,11.7183984 L3.64334991,2.53450428 C3.60010053,2.09713394 3.33205515,1.71391282 2.93604639,1.52328128 C2.0019445,1.07576398 1.01563922,0.746583041 0,0.543371195 L0.0699935776,0.20997952 L5.13531827,0.20997952 C5.81952014,0.20908257 6.40215966,0.707258911 6.50756078,1.38329413 L7.76191937,8.04189368 L10.8600561,0.20997952 L13.985822,0.211822669 Z M26.3157432,7.96084848 C26.3286368,4.9234956 22.1161286,4.7558794 22.1455996,3.40021432 C22.1548092,2.9876206 22.5489836,2.54923977 23.4091678,2.43688166 C24.4156562,2.34112058 25.4293383,2.51865811 26.3433723,2.95078188 L26.8664822,0.510216342 C25.9758786,0.175864254 25.0327666,0.00308513492 24.0814746,0 C21.1343766,0 19.0677241,1.56380388 19.0511467,3.80359836 C19.0308854,5.46134099 20.5246957,6.38230912 21.6574865,6.93488999 C22.8160644,7.49852248 23.2065548,7.85585812 23.201029,8.36423252 C23.201029,9.13600381 22.2800609,9.46939427 21.4198767,9.48965557 C20.3552298,9.51254282 19.3024987,9.26204356 18.3622625,8.76209075 L17.8225752,11.2837015 C18.8794329,11.6942761 20.0042716,11.9017463 21.1380604,11.8952243 C24.2693521,11.8952243 26.3102174,10.3516817 26.3194271,7.95900655 M34.0887142,11.7165565 L36.8424089,11.7165565 L34.4478918,0.209927313 L31.8949682,0.209927313 C31.3396313,0.205068188 30.8374629,0.539360548 30.627716,1.05358754 L26.1610206,11.7165565 L29.2923122,11.7165565 L29.9130447,9.99802998 L33.7313786,9.99802998 L34.0887142,11.7165565 Z M30.773229,7.64035158 L32.3407167,3.31916913 L33.2432655,7.64035158 L30.773229,7.64035158 Z M18.2480625,0.209980733 L15.7872356,11.7165565 L12.8106666,11.7165565 L15.2733354,0.209980733 L18.2480625,0.209980733 Z" id="Path_4973"></path>
                    </g>
                </g>
            </g>
        </g>
    </g>
</svg>