<?xml version="1.0" encoding="UTF-8"?>
<svg width="20px" height="20px" viewBox="0 0 20 20" version="1.1" xmlns="http://www.w3.org/2000/svg" xmlns:xlink="http://www.w3.org/1999/xlink">
    <title>Mask</title>
    <g id="Adquirencia-Móvil---Flujo-Principal" stroke="none" stroke-width="1" fill="none" fill-rule="evenodd">
        <g id="006---CM-No-Clientes-|-Beneficios---002C" transform="translate(-42.000000, -266.000000)" fill="#717171" fill-rule="nonzero">
            <g id="Contenerdor" transform="translate(16.000000, 152.000000)">
                <g id="Beneficio-2" transform="translate(24.000000, 112.000000)">
                    <g id="Mask" transform="translate(2.000000, 2.000000)">
                        <path d="M10,3 C6.13400675,3 3,6.13400675 3,10 C3,13.8659932 6.13400675,17 10,17 C13.8659932,17 17,13.8659932 17,10 C17,6.13400675 13.8659932,3 10,3 Z M12,13.51 C11.5714815,13.9106144 11.015732,14.1477814 10.43,14.18 L10.43,14.89 C10.3965424,15.06203 10.26203,15.1965424 10.09,15.23 L10,15.23 C9.81158698,15.2028707 9.66662819,15.0496285 9.65,14.86 L9.65,14.18 C9.04302603,14.1498672 8.47057201,13.8886851 8.05,13.45 C7.79156559,13.1697061 7.61514021,12.823774 7.54,12.45 C7.52966658,12.3938044 7.52966658,12.3361956 7.54,12.28 L7.54,12.28 C7.5338647,12.0094122 7.74017097,11.7811585 8.01,11.76 L8,11.76 C8.2104126,11.7824418 8.38731234,11.9278927 8.45,12.13 C8.45470926,12.1665155 8.45470926,12.2034845 8.45,12.24 C8.49721587,12.5041118 8.62262792,12.7479686 8.81,12.94 C9.11545425,13.2308683 9.52925652,13.379692 9.95,13.35 C10.3666357,13.380719 10.7798841,13.256032 11.11,13 C11.4053802,12.7556091 11.5622907,12.3820127 11.53,12 C11.5364756,11.6783373 11.4055321,11.3691653 11.17,11.15 C10.8180588,10.8589925 10.4093887,10.6444407 9.97,10.52 C9.33071565,10.3591083 8.74248785,10.0391949 8.26,9.59 C7.900817,9.18641976 7.71099545,8.65993358 7.73,8.12 C7.70772255,7.57832562 7.89380774,7.04869854 8.25,6.64 C8.63970864,6.2578567 9.15503932,6.0304004 9.7,6 L9.7,5.25 C9.68666667,5.20428571 9.68666667,5.15571429 9.7,5.11 C9.7272656,4.94886649 9.84351538,4.81711673 10,4.77 L10.07,4.77 C10.2964367,4.77 10.48,4.95356325 10.48,5.18 L10.48,6 C11.0701623,6.03148881 11.6207116,6.30676348 12,6.76 C12.2509088,7.09393588 12.4126568,7.48626076 12.47,7.9 C12.4749165,7.93984893 12.4749165,7.98015107 12.47,8.02 L12.47,8.02 C12.4671231,8.2641458 12.297826,8.47473482 12.06,8.53 L11.89,8.53 C11.6848376,8.50248488 11.517843,8.35139447 11.47,8.15 L11.47,8.15 C11.4594925,8.0971842 11.4594925,8.0428158 11.47,7.99 L11.47,7.99 C11.4279054,7.723191 11.3176868,7.47175489 11.15,7.26 C10.9107954,6.95381472 10.5381474,6.78239664 10.15,6.8 C9.7844733,6.77398001 9.42391379,6.89657025 9.15,7.14 C8.89685628,7.40816115 8.77277275,7.77311272 8.81,8.14 C8.794506,8.4749639 8.92598389,8.80000648 9.17,9.03 C9.52904311,9.31132198 9.94030793,9.51865383 10.38,9.64 C10.8433449,9.77570314 11.2845921,9.97780108 11.69,10.24 C11.9779893,10.4339064 12.2147366,10.6946714 12.38,11 C12.5313213,11.3112664 12.6067151,11.6539656 12.6,12 C12.6153356,12.5642809 12.3984405,13.1101334 12,13.51 L12,13.51 Z" id="Shape"></path>
                        <path d="M10,1 C14.9705627,1 19,5.02943725 19,10 C19,14.9705627 14.9705627,19 10,19 C5.02943725,19 1,14.9705627 1,10 C1,5.02943725 5.02943725,1 10,1 M10,0 C4.4771525,0 1.77635684e-15,4.4771525 1.77635684e-15,10 C1.77635684e-15,15.5228475 4.4771525,20 10,20 C15.5228475,20 20,15.5228475 20,10 C20,7.3478351 18.9464316,4.80429597 17.0710678,2.92893219 C15.195704,1.0535684 12.6521649,0 10,0 L10,0 Z" id="Shape"></path>
                    </g>
                </g>
            </g>
        </g>
    </g>
</svg>