<?xml version="1.0" encoding="UTF-8"?>
<svg width="20px" height="20px" viewBox="0 0 20 20" version="1.1" xmlns="http://www.w3.org/2000/svg" xmlns:xlink="http://www.w3.org/1999/xlink">
    <title>Mask</title>
    <g id="Adquirencia-Móvil---Flujo-Principal" stroke="none" stroke-width="1" fill="none" fill-rule="evenodd">
        <g id="006---CM-No-Clientes-|-Beneficios---002C" transform="translate(-43.000000, -363.000000)" fill="#717171" fill-rule="nonzero">
            <g id="Contenerdor" transform="translate(16.000000, 152.000000)">
                <g id="Beneficio-2-Copy-4" transform="translate(27.015000, 208.000000)">
                    <g id="04-iconos/01-24x24_/General-icons/Concesionario-Copy-4" transform="translate(0.000000, 3.015000)">
                        <g id="Mask" transform="translate(-0.000000, -0.000000)">
                            <path d="M6.03000003,11.055 C6.5850462,11.055 7.03500003,11.5049539 7.03500003,12.0600001 L7.03500003,16.0800001 C7.03500003,16.6350462 6.5850462,17.0850001 6.03000003,17.0850001 L2.01000001,17.0850001 C1.45495383,17.0850001 1.005,16.6350462 1.005,16.0800001 L1.005,12.0600001 C1.005,11.5049539 1.45495383,11.055 2.01000001,11.055 L6.03000003,11.055 M6.03000003,10.05 L2.01000001,10.05 C0.899907657,10.05 0,10.9499077 0,12.0600001 L0,16.0800001 C0,17.1900924 0.899907657,18.0900001 2.01000001,18.0900001 L6.03000003,18.0900001 C7.14009238,18.0900001 8.04000003,17.1900924 8.04000003,16.0800001 L8.04000003,12.0600001 C8.04000003,10.9499077 7.14009238,10.05 6.03000003,10.05 Z" id="Shape"></path>
                            <path d="M6.03000003,1.005 C6.5850462,1.005 7.03500003,1.45495383 7.03500003,2.01000001 L7.03500003,6.03000003 C7.03500003,6.5850462 6.5850462,7.03500003 6.03000003,7.03500003 L2.01000001,7.03500003 C1.45495383,7.03500003 1.005,6.5850462 1.005,6.03000003 L1.005,2.01000001 C1.005,1.45495383 1.45495383,1.005 2.01000001,1.005 L6.03000003,1.005 M6.03000003,0 L2.01000001,0 C0.899907657,0 0,0.899907657 0,2.01000001 L0,6.03000003 C0,7.14009238 0.899907657,8.04000003 2.01000001,8.04000003 L6.03000003,8.04000003 C7.14009238,8.04000003 8.04000003,7.14009238 8.04000003,6.03000003 L8.04000003,2.01000001 C8.04000003,0.899907657 7.14009238,0 6.03000003,0 Z" id="Shape"></path>
                            <path d="M16.0800001,1.005 C16.6350462,1.005 17.0850001,1.45495383 17.0850001,2.01000001 L17.0850001,6.03000003 C17.0850001,6.5850462 16.6350462,7.03500003 16.0800001,7.03500003 L12.0600001,7.03500003 C11.5049539,7.03500003 11.055,6.5850462 11.055,6.03000003 L11.055,2.01000001 C11.055,1.45495383 11.5049539,1.005 12.0600001,1.005 L16.0800001,1.005 M16.0800001,0 L12.0600001,0 C10.9499077,0 10.05,0.899907657 10.05,2.01000001 L10.05,6.03000003 C10.05,7.14009238 10.9499077,8.04000003 12.0600001,8.04000003 L16.0800001,8.04000003 C17.1900924,8.04000003 18.0900001,7.14009238 18.0900001,6.03000003 L18.0900001,2.01000001 C18.0900001,0.899907657 17.1900924,0 16.0800001,0 Z" id="Shape"></path>
                            <rect id="Rectangle" x="10.5" y="10.5" width="3.01500001" height="3.01500001" rx="0.335"></rect>
                            <rect id="Rectangle" x="10.5" y="15" width="3.01500001" height="3.01500001" rx="0.335"></rect>
                            <rect id="Rectangle" x="15" y="10.5" width="3.01500001" height="3.01500001" rx="0.335"></rect>
                            <rect id="Rectangle" x="15" y="15" width="3.01500001" height="3.01500001" rx="0.335"></rect>
                        </g>
                    </g>
                </g>
            </g>
        </g>
    </g>
</svg>