<?xml version="1.0" encoding="UTF-8"?>
<svg width="38px" height="28px" viewBox="0 0 38 28" version="1.1" xmlns="http://www.w3.org/2000/svg" xmlns:xlink="http://www.w3.org/1999/xlink">
    <title>mc_symbol</title>
    <g id="Adquirencia-Móvil---Flujo-Principal" stroke="none" stroke-width="1" fill="none" fill-rule="evenodd">
        <g id="Adquirencia-Móvil-|-Tarifas---004I" transform="translate(-194.000000, -314.000000)">
            <g id="Box" transform="translate(16.000000, 152.000000)">
                <g id="Group-4-Copy" transform="translate(173.333333, 160.000000)">
                    <g id="mc_symbol" transform="translate(5.333333, 2.933333)">
                        <rect id="Rectangle" x="0" y="0" width="37.3333333" height="26.4554778"></rect>
                        <g id="Group" transform="translate(0.000000, 1.866667)" fill-rule="nonzero">
                            <rect id="Rectangle" fill="#FF5F00" x="13.0666667" y="1.86666667" width="11.2" height="18.6666667"></rect>
                            <path d="M14.2601768,11.2 C14.2569449,7.7634612 15.8818931,4.51639592 18.6666667,2.39469773 C13.9365113,-1.21463363 7.14330241,-0.689308911 3.06141532,3.60146532 C-1.02047177,7.89223954 -1.02047177,14.5077605 3.06141532,18.7985347 C7.14330241,23.0893089 13.9365113,23.6146336 18.6666667,20.0053023 C15.8819123,17.8835891 14.2569689,14.6365335 14.2601768,11.2 Z" id="Path" fill="#EB001B"></path>
                            <path d="M37.3333333,11.2 C37.3333333,15.4879018 34.8116166,19.3995072 30.8387184,21.2735875 C26.8658201,23.1476678 22.1393744,22.6552143 18.6666667,20.0053681 C21.4489266,17.8816225 23.073261,14.6358366 23.073261,11.2 C23.073261,7.7641634 21.4489266,4.51837745 18.6666667,2.39463185 C22.1393744,-0.255214259 26.8658201,-0.7476678 30.8387184,1.12641248 C34.8116166,3.00049275 37.3333333,6.91209822 37.3333333,11.2 L37.3333333,11.2 Z" id="Path" fill="#F79E1B"></path>
                            <path d="M35.9114716,20.5333333 L35.9114716,18.9851475 L36.1990439,18.9851475 L36.1990439,18.6697393 L35.4666667,18.6697393 L35.4666667,18.9851475 L35.7543621,18.9851475 L35.7543621,20.5333333 L35.9114716,20.5333333 Z M37.3333333,20.5333333 L37.3333333,18.6666667 L37.1088386,18.6666667 L36.8506265,19.9506095 L36.5923406,18.6666667 L36.3677227,18.6666667 L36.3677227,20.5333333 L36.5262475,20.5333333 L36.5262475,19.1252845 L36.768404,20.3392256 L36.9327751,20.3392256 L37.1749377,19.1222119 L37.1749377,20.5333333 L37.3333333,20.5333333 Z" id="Shape" fill="#F79E1B"></path>
                        </g>
                    </g>
                </g>
            </g>
        </g>
    </g>
</svg>