<?xml version="1.0" encoding="UTF-8"?>
<svg width="22px" height="22px" viewBox="0 0 22 22" version="1.1" xmlns="http://www.w3.org/2000/svg" xmlns:xlink="http://www.w3.org/1999/xlink">
    <title>Mask</title>
    <g id="Adquirencia-Móvil---Flujo-Principal" stroke="none" stroke-width="1" fill="none" fill-rule="evenodd">
        <g id="Adquirencia-Móvil-|-Biometría---022R" transform="translate(-297.000000, -249.000000)" fill="#717171" fill-rule="nonzero">
            <g id="Card" transform="translate(16.000000, 152.000000)">
                <g id="Foto-frontal" transform="translate(184.000000, 112.000000) rotate(-90.000000) translate(-184.000000, -112.000000) translate(120.000000, -8.000000)">
                    <g id="Error" transform="translate(56.000000, 216.000000)">
                        <g id="04-iconos/01-24x24_/Dialog-Icons/Resultado-exitoso" transform="translate(1.000000, 1.000000)">
                            <g id="Mask" transform="translate(-0.000000, -0.000000)">
                                <g id="Error" transform="translate(0.000000, 0.000000)">
                                    <path d="M11.71,11 L15.35,7.35 C15.475043,7.22495704 15.5238778,7.04270296 15.4781089,6.87189111 C15.43234,6.70107925 15.2989207,6.56766001 15.1281089,6.52189111 C14.957297,6.47612221 14.775043,6.52495704 14.65,6.65 L11,10.29 L7.35,6.65 C7.15670034,6.45670034 6.84329967,6.45670034 6.65000001,6.65000001 C6.45670034,6.84329967 6.45670034,7.15670034 6.65,7.35 L10.29,11 L6.65,14.65 C6.55332277,14.7407333 6.49848135,14.8674141 6.49848135,15 C6.49848135,15.1325859 6.55332277,15.2592667 6.65,15.35 C6.74073333,15.4466772 6.86741409,15.5015186 7,15.5015186 C7.13258591,15.5015186 7.25926667,15.4466772 7.35,15.35 L11,11.71 L14.65,15.35 C14.7407333,15.4466772 14.8674141,15.5015186 15,15.5015186 C15.1325859,15.5015186 15.2592667,15.4466772 15.35,15.35 C15.4466772,15.2592667 15.5015186,15.1325859 15.5015186,15 C15.5015186,14.8674141 15.4466772,14.7407333 15.35,14.65 L11.71,11 Z" id="Path"></path>
                                    <path d="M11,21.5 C5.20101013,21.5 0.5,16.7989899 0.5,11 C0.5,5.20101013 5.20101013,0.5 11,0.5 C16.7989899,0.5 21.5,5.20101013 21.5,11 C21.4944872,16.7967049 16.7967049,21.4944872 11,21.5 Z M11,1.5 C5.75329488,1.5 1.5,5.75329488 1.5,11 C1.5,16.2467051 5.75329488,20.5 11,20.5 C16.2467051,20.5 20.5,16.2467051 20.5,11 C20.4944883,5.75557961 16.2444204,1.50551174 11,1.5 Z" id="Shape"></path>
                                </g>
                            </g>
                        </g>
                    </g>
                </g>
            </g>
        </g>
    </g>
</svg>