<?xml version="1.0" encoding="UTF-8"?>
<svg width="44px" height="20px" viewBox="0 0 44 20" version="1.1" xmlns="http://www.w3.org/2000/svg" xmlns:xlink="http://www.w3.org/1999/xlink">
    <title>Group 28</title>
    <defs>
        <polygon id="path-1" points="0 0 22.8030492 0 22.8030492 19.8101677 0 19.8101677"></polygon>
    </defs>
    <g id="Adquirencia-Móvil---Flujo-Principal" stroke="none" stroke-width="1" fill="none" fill-rule="evenodd">
        <g id="Adquirencia-Móvil-|-Tarifas---004I" transform="translate(-58.000000, -318.000000)">
            <g id="Box" transform="translate(16.000000, 152.000000)">
                <g id="Group-Copy" transform="translate(40.000000, 160.000000)">
                    <g id="Group-28" transform="translate(2.907286, 6.094916)">
                        <g id="Group-3" transform="translate(19.382378, 0.000000)">
                            <mask id="mask-2" fill="white">
                                <use xlink:href="#path-1"></use>
                            </mask>
                            <g id="Clip-2"></g>
                            <path d="M17.6873339,1.05527926 C17.3858572,1.05534273 17.0842854,1.05074076 16.7829675,1.0577548 C16.6735041,1.06032556 16.5613112,1.07924124 16.4562594,1.11047116 C16.205817,1.18492785 16.0948619,1.40036351 16.1616698,1.65680431 C16.1908368,1.76880673 16.2352696,1.88074567 16.2396811,1.9940176 C16.243204,2.08399404 16.2228602,2.20732683 16.163701,2.25725027 C16.1149519,2.29838236 15.9805109,2.27975231 15.9066572,2.24265092 C15.3555317,1.96554887 14.8217984,1.65096456 14.2597234,1.39925269 C13.5866297,1.09783954 12.8973182,0.829211464 12.203119,0.57946733 C11.5204723,0.333880836 10.8275744,0.367173707 10.1353746,0.584799267 C9.18079917,0.884911167 8.27411592,1.29372476 7.38929997,1.75474692 C6.0719306,2.44113863 4.80188218,3.20785852 3.60187891,4.08255014 C2.73169404,4.71679678 1.88623287,5.3856058 1.04308854,6.0557478 C0.818321994,6.23439943 0.642907604,6.47500311 0.443912087,6.68631286 C0.397321111,6.73576023 0.351936169,6.81310506 0.297188598,6.82170598 C0.219907245,6.83389327 0.113744564,6.81850047 0.0573148946,6.77070346 C-0.0288847585,6.6977067 -0.00939779716,6.58357785 0.0598539124,6.49785427 C0.182583684,6.34589405 0.297379024,6.18146091 0.444483366,6.05628734 C1.01938046,5.56714557 1.5979274,5.08162189 2.18926464,4.61260184 C3.49638272,3.57579393 4.89414374,2.67196708 6.34157429,1.84592939 C7.30052956,1.29867585 8.28976262,0.808581945 9.32834784,0.428776625 C9.92200193,0.211690606 10.5199089,0.00457023198 11.1670728,-6.6585153e-06 C11.6834772,-0.00355462487 12.1678584,0.13333017 12.6498909,0.291542715 C13.666704,0.625264862 14.6260401,1.08860387 15.5682379,1.5902503 C15.6465666,1.63192193 15.7267678,1.66743644 15.7333058,1.5304247 C15.7674556,0.81604031 16.2614532,0.663604031 16.7373604,0.650115499 C17.3715435,0.63212021 18.006774,0.637769525 18.6412111,0.650496351 C18.8335417,0.654368354 19.0295539,0.698991591 19.2153465,0.753834375 C19.4927659,0.835749435 19.6571038,1.08730262 19.6741153,1.37243432 C19.6952526,1.72767464 19.5866778,2.06034944 19.5235198,2.40191081 C19.4365267,2.8726447 19.3613718,3.34585414 19.2960555,3.82004744 C19.2875181,3.8821899 19.3513109,3.97676831 19.408661,4.02205804 C20.0183743,4.50339234 20.6388468,4.97111115 21.2456086,5.45606354 C21.7838486,5.88623662 22.2972063,6.34519582 22.6036657,6.981918 C23.0545318,7.91868861 22.719921,8.68740797 21.8102226,9.10063311 C21.1190385,9.41458266 20.3856433,9.46850505 19.6372043,9.42143801 C19.2602236,9.39772993 19.2517814,9.36592873 19.3153521,9.75357327 C19.4912742,10.8263083 19.939633,11.7867235 20.6004759,12.644245 C20.9288344,13.0703239 21.2117762,13.516588 21.3820173,14.0279145 C21.641981,14.8087259 21.651058,15.5928063 21.3830646,16.3733956 C21.0439788,17.3609148 20.3742812,18.0809485 19.5134907,18.6365173 C18.8415396,19.0701816 18.1039232,19.3339538 17.3175577,19.4845493 C16.677503,19.6071204 16.0350046,19.6116271 15.3921888,19.5804289 C15.0417408,19.5634493 14.6948793,19.4746789 14.3458595,19.4220577 C14.2792738,19.4120286 14.207737,19.4080931 14.142389,19.4210104 C13.7452549,19.4995612 13.3502789,19.5890616 12.9526687,19.6649782 C12.3276895,19.7842803 11.6946807,19.8163672 11.0601166,19.8092262 C10.3888638,19.8016726 9.72145126,19.7435291 9.06289353,19.6078503 C8.7849663,19.5505955 8.51202189,19.4617933 8.23187302,19.4255806 C8.06556735,19.4040624 7.88989906,19.4598573 7.71797582,19.4759801 C7.28262949,19.5168265 6.84766401,19.5765252 6.41136554,19.5897916 C5.32676063,19.6227036 4.29150787,19.4004761 3.32512597,18.9019717 C2.36585332,18.4071171 1.59208766,17.7158695 1.1305577,16.7188607 C0.811149269,16.0287874 0.719173351,15.3053895 0.854534735,14.5561888 C0.879797962,14.4164794 0.920866574,14.2789598 0.963363384,14.1431541 C1.00113127,14.0225508 1.09618575,13.9772611 1.21332968,14.0090623 C1.33637683,14.0424821 1.37490643,14.139536 1.34710418,14.2579495 C1.25763554,14.6389608 1.16750041,15.0194644 1.20469702,15.4159955 C1.28324788,16.2533318 1.63645699,16.9600039 2.21100498,17.5672735 C2.82576465,18.2170081 3.57686958,18.6419762 4.41982348,18.9071766 C5.06822514,19.1111867 5.73712937,19.1969738 6.41917302,19.1880555 C6.97080637,19.180851 7.51345794,19.1159474 8.05182492,18.9994699 C8.13139139,18.9822681 8.22146304,18.9902977 8.30242597,19.0070553 C8.75084825,19.0997929 9.19393859,19.2313457 9.64658198,19.2875215 C10.2160202,19.3582331 10.794345,19.4127268 11.366227,19.3941603 C12.0121848,19.3731816 12.6566193,19.2731761 13.2989908,19.187389 C13.5687614,19.1513667 13.828852,19.034318 14.0985275,19.0086421 C14.312884,18.988203 14.5370476,19.039999 14.7535306,19.0783699 C15.4665185,19.2046543 16.1803633,19.2183967 16.898588,19.1303563 C17.5375953,19.0520593 18.1507998,18.8839764 18.7282359,18.6017328 C19.690841,18.1311893 20.4632102,17.4596191 20.907697,16.4606426 C21.1771503,15.8550234 21.2563042,15.2214115 21.1136114,14.5733907 C20.9848197,13.9884962 20.7174611,13.4635543 20.3448603,12.9937725 C19.7744065,12.274564 19.3486767,11.4768046 19.0840475,10.5992249 C18.951733,10.1603557 18.8551233,9.70977521 18.8702305,9.24430978 C18.8768002,9.04179138 18.9212648,8.99748552 19.1287342,8.99954847 C19.5988334,9.00430913 20.0702655,9.03182573 20.5387143,9.00592775 C21.039123,8.9782842 21.5246149,8.85387233 21.9401886,8.55337957 C22.4021946,8.21927657 22.5077226,7.74086215 22.2590893,7.22312469 C22.0275626,6.74096522 21.6801297,6.35138468 21.2699514,6.02166148 C20.5248132,5.42270719 19.7683763,4.83765402 19.011876,4.25294997 C18.8988897,4.16560776 18.8536951,4.07867814 18.8627087,3.93347806 C18.9074589,3.21363479 19.0654492,2.51511926 19.2294698,1.81625462 C19.2649208,1.66515133 19.2616518,1.5003056 19.2492424,1.34393384 C19.2375629,1.19689297 19.1134684,1.13252887 18.9829946,1.11161372 C18.8065012,1.08333541 18.6274369,1.06375323 18.4488805,1.05746916 C18.1953278,1.0485826 17.9412039,1.05521578 17.6873339,1.05527926" id="Fill-1" fill="#E82031" mask="url(#mask-2)"></path>
                        </g>
                        <path d="M0.945265528,10.9944579 C0.945329003,10.5765991 0.943519953,10.1587085 0.946185922,9.74084962 C0.947265005,9.57448048 0.995760244,9.42067948 1.15190984,9.33854225 C1.40193961,9.20702113 1.68418317,9.39135382 1.68081897,9.67378781 C1.67174199,10.4353345 1.67821648,11.1971033 1.6785656,11.9587768 C1.67872429,12.2362915 1.67624874,12.2549533 1.95633414,12.2927846 C2.87910841,12.4174504 3.78477605,12.382285 4.61804994,11.9022202 C5.19034454,11.5725288 5.48103034,11.0592029 5.50378629,10.4049615 C5.51483101,10.0883142 5.37854924,9.80826054 5.18637733,9.56054762 C4.79530512,9.05648912 4.27896412,8.74393603 3.66388706,8.59375313 C2.77862678,8.3775875 1.88705069,8.349817 0.991570865,8.52694522 C0.846783376,8.55557265 0.702567167,8.59064283 0.561492993,8.63380613 C0.303814427,8.71267437 0.102565532,8.66643251 0.0290609674,8.50171373 C-0.053679274,8.31639718 0.0424860238,8.06890642 0.289119862,7.97626401 C0.568284865,7.87137084 0.864397812,7.79177263 1.15990774,7.75368736 C2.2703789,7.61058197 3.36755195,7.68011932 4.4307339,8.05411664 C5.11909336,8.29627546 5.72150706,8.66687684 6.10248668,9.317881 C6.38803096,9.805785 6.47165986,10.3268549 6.35343684,10.8860418 C6.15964631,11.802532 5.58265453,12.3843797 4.74452476,12.7200061 C3.72085627,13.1299623 2.65586527,13.1820439 1.57846482,12.9899989 C1.12559926,12.9092899 0.946090709,12.6654172 0.945360741,12.2004596 C0.944694249,11.7984696 0.945202053,11.3964479 0.945265528,10.9944579" id="Fill-4" fill="#EB202F"></path>
                        <path d="M10.132203,7.69394428 C10.4077817,7.70657589 10.6971027,7.90680918 10.9624618,8.14842846 C11.4275782,8.57193662 11.7860557,9.08196181 12.1166676,9.61153744 C12.6655715,10.4907676 13.1311004,11.4129705 13.5068115,12.3793207 C13.5842833,12.5785384 13.5646059,12.775471 13.4181681,12.9436491 C13.1987017,13.1956784 12.8763734,13.1505156 12.7386,12.8451353 C12.534939,12.3937614 12.3621589,11.9266456 12.1321238,11.4894267 C11.7812633,10.8224902 11.4087259,10.1654876 11.0123535,9.52473477 C10.8515702,9.26483457 10.6192184,9.04209923 10.3917541,8.83250332 C10.1501031,8.60983146 9.92593957,8.61913061 9.65946966,8.8138098 C9.3119416,9.06767984 9.06521255,9.41263714 8.8298456,9.76349766 C8.2042951,10.6959519 7.72039005,11.703339 7.27850575,12.7323077 C7.15047578,13.0305153 6.98620133,13.1257285 6.74670848,13.04229 C6.52400488,12.964723 6.37318723,12.6921277 6.45789521,12.4439704 C6.57008806,12.115485 6.70513206,11.7929346 6.85442631,11.4793024 C7.2427056,10.663389 7.67535423,9.87153286 8.20419989,9.13632853 C8.50377225,8.7198344 8.82222855,8.31924088 9.23250208,8.00230798 C9.50414525,7.7924899 9.77058342,7.68775542 10.132203,7.69394428" id="Fill-6" fill="#EB202F"></path>
                        <path d="M16.0873835,13.0929878 C15.6361683,13.0796897 15.3628113,12.8742197 15.1152888,12.6294584 C14.4529226,11.9743601 13.9900596,11.1793936 13.576168,10.3578627 C13.2730093,9.75608372 13.0076819,9.13469086 12.7427037,8.51469446 C12.6880513,8.38675971 12.6907173,8.22489732 12.7008099,8.08106197 C12.7136002,7.89841138 12.8862216,7.74264264 13.0542094,7.72471082 C13.2139771,7.70766767 13.3469899,7.79980227 13.4255408,7.98848303 C13.551,8.28976923 13.6665253,8.59537175 13.7987764,8.89361113 C14.1601738,9.70866757 14.5353137,10.5183921 15.046418,11.2527395 C15.2255774,11.5101324 15.4407909,11.7475623 15.6671126,11.965537 C15.8767402,12.1674206 16.0777035,12.1532021 16.3079607,11.9733127 C16.6049305,11.7413417 16.8076076,11.4308198 17.001779,11.1161721 C17.5910533,10.161311 18.0437284,9.14148274 18.4295639,8.09026591 C18.4584452,8.01158809 18.4909764,7.93278333 18.5332193,7.8607387 C18.6815614,7.60756689 18.9744371,7.5960461 19.1409015,7.83782406 C19.2835943,8.04510313 19.273216,8.26999663 19.1777807,8.48844737 C18.8554524,9.22638114 18.5461683,9.97097984 18.1939748,10.6945682 C17.8935455,11.3118351 17.5352266,11.9020615 17.0745536,12.4167839 C16.8936803,12.6188897 16.6769434,12.7945263 16.455192,12.952231 C16.3325257,13.0394463 16.1657439,13.064646 16.0873835,13.0929878" id="Fill-8" fill="#EB202F"></path>
                        <path d="M22.8248734,10.98752 C22.8248734,11.1405911 22.8130035,11.2947412 22.8271268,11.4464792 C22.8680685,11.8866814 23.2169613,12.2530934 23.6655422,12.3409435 C24.1039671,12.4268257 24.5592765,12.2156112 24.7629374,11.8240947 C25.0230281,11.3240351 25.0525759,10.8013466 24.8628795,10.2765316 C24.7074916,9.84667588 24.4051898,9.56275022 23.9288066,9.53701092 C23.4959041,9.51362022 23.1841445,9.73530821 22.9678836,10.0954044 C22.8027205,10.3704118 22.8003402,10.6789024 22.8248734,10.98752 M22.8219218,12.3905495 C22.8185894,12.4609438 22.8132892,12.5220389 22.8132257,12.583134 C22.8125275,13.1063938 22.8090363,13.6297171 22.8152887,14.1529135 C22.816939,14.2907504 22.7723793,14.3461962 22.6334315,14.3370557 C22.5071154,14.3287405 22.3786728,14.3442285 22.2536262,14.3290578 C22.2111928,14.3239163 22.166157,14.2627577 22.1412429,14.2168967 C22.123438,14.1841117 22.1368631,14.1341882 22.1368631,14.0918818 C22.1367996,12.6806323 22.1380691,11.269351 22.1354666,9.85810146 C22.1350858,9.64764862 22.121629,9.4367832 22.1040146,9.22699685 C22.0955406,9.12584873 22.1205182,9.07433841 22.2276013,9.07709959 C22.3700401,9.08078117 22.5445341,9.0340315 22.6446667,9.10039508 C22.7219797,9.1516515 22.7054761,9.34369646 22.731755,9.47293246 C22.7427362,9.52685485 22.7565104,9.58020596 22.7748231,9.65875683 C22.8414405,9.57938078 22.8873968,9.52326849 22.9347494,9.46836223 C23.5379566,8.76918021 24.9835146,8.74867765 25.471006,9.94369809 C25.7625487,10.6583364 25.7411892,11.3818295 25.3769671,12.0711093 C24.9836416,12.8155176 24.0347789,13.1139474 23.2867842,12.734396 C23.1260962,12.6528618 22.9921947,12.5186112 22.8219218,12.3905495" id="Fill-10" fill="#000000"></path>
                        <path d="M36.5075386,11.2700968 C36.5075386,11.2119533 36.5018893,11.1531751 36.5086494,11.095825 C36.5257561,10.9510693 36.4663431,10.8852135 36.3208891,10.9037483 C36.0754295,10.9349782 35.8249872,10.9474829 35.5867004,11.0076894 C35.4290273,11.0475202 35.2692597,11.1340055 35.1453873,11.2402951 C34.9256988,11.4287855 34.8749185,11.6880509 34.9584839,11.9627092 C35.0246888,12.180303 35.17411,12.3299463 35.4023677,12.3684759 C35.7431673,12.4260164 36.0381694,12.3320728 36.2740759,12.0688718 C36.4803711,11.8387099 36.5156317,11.5614174 36.5075386,11.2700968 M34.6637674,9.75281156 C34.6174303,9.62906619 34.5675069,9.51388999 34.5339284,9.39411183 C34.5249149,9.36199326 34.5549387,9.29499492 34.58528,9.27931649 C35.1848056,8.96971501 35.8100704,8.87012204 36.4478717,9.132593 C36.9081639,9.32203546 37.1006214,9.73030952 37.1276302,10.1956163 C37.1627956,10.8013942 37.1476567,11.4100285 37.1596853,12.0173298 C37.1639699,12.2333367 37.1812352,12.4493119 37.1989132,12.664811 C37.2072602,12.7665939 37.1750464,12.8163587 37.0688202,12.8070278 C37.0426049,12.8047109 37.0159769,12.8072499 36.9896029,12.8063613 C36.8738237,12.8025528 36.7290997,12.8385116 36.6508979,12.7822089 C36.5812971,12.732095 36.5860577,12.5794366 36.5563512,12.4725122 C36.549845,12.4491532 36.536293,12.4277303 36.5179803,12.3879946 C36.4290512,12.4652442 36.3558006,12.5386536 36.2730286,12.5990822 C35.8285735,12.9236322 35.3409234,13.0002788 34.8374997,12.7795112 C34.1078177,12.4595632 34.118196,11.4932765 34.5085699,11.0491706 C34.7970976,10.720939 35.1808066,10.5804044 35.5913341,10.5049004 C35.82924,10.461134 36.0737474,10.4487246 36.3160015,10.4351409 C36.4380013,10.4282855 36.4700881,10.3945483 36.4701198,10.2643602 C36.4701833,9.83897948 36.174959,9.48818244 35.6646165,9.49951281 C35.4972317,9.50322612 35.3266732,9.52391911 35.1646204,9.5647973 C35.0022819,9.6057707 34.8487666,9.68165559 34.6637674,9.75281156" id="Fill-12" fill="#000000"></path>
                        <path d="M30.2864087,11.3213374 C30.2864087,11.2083511 30.298596,11.1162165 30.2815211,11.0298582 C30.2722854,10.9832354 30.2139515,10.9117621 30.1761519,10.9107147 C29.7878091,10.9000191 29.4016562,10.9302017 29.0587302,11.1336405 C28.6581684,11.3712291 28.590091,11.9264805 28.911848,12.2337969 C29.1256015,12.4379339 29.5920826,12.4362836 29.8872117,12.2248151 C30.2049697,11.9971287 30.3150044,11.6765777 30.2864087,11.3213374 M30.3151631,12.4080687 C30.1320682,12.5307033 29.9687141,12.6653982 29.7844132,12.7586436 C29.2872735,13.0102285 28.677814,12.9144124 28.3234306,12.5713276 C27.8862435,12.1481051 27.8955109,11.159475 28.6459811,10.7568503 C29.092753,10.5171353 29.5758646,10.4538502 30.0701479,10.4330303 C30.2602568,10.4250324 30.2671122,10.4037046 30.2524494,10.2147382 C30.2084926,9.6474582 29.7695282,9.42783316 29.2270988,9.51114468 C28.965326,9.55135637 28.7125351,9.65031459 28.4393368,9.72727857 C28.4018863,9.62914553 28.3498999,9.51441367 28.3176226,9.3943816 C28.3086726,9.36118394 28.3476782,9.29199571 28.3826849,9.27352436 C28.9668495,8.96585888 29.5806887,8.88235693 30.203605,9.11721607 C30.6611677,9.28971059 30.8711445,9.68601953 30.9054847,10.1473591 C30.9450299,10.678585 30.9262412,11.2139687 30.9389046,11.7474163 C30.9461725,12.0532727 30.9614383,12.3591292 30.9819092,12.6643826 C30.9889867,12.7695297 30.9577568,12.8145972 30.8529588,12.8069167 C30.82668,12.8049807 30.800052,12.8076149 30.7737097,12.8060598 C30.6534555,12.7990775 30.5044786,12.8311326 30.422024,12.7714657 C30.3539783,12.7222087 30.3650865,12.5640279 30.3398551,12.4544375 C30.3365226,12.4399651 30.3256366,12.4272066 30.3151631,12.4080687" id="Fill-14" fill="#000000"></path>
                        <path d="M19.7926229,10.3917998 C19.7926864,9.66237175 19.7926229,8.93294369 19.7927181,8.20354736 C19.7927499,7.91971691 19.9573734,7.72643418 20.2038486,7.72018185 C20.4601307,7.71367562 20.6408453,7.9011186 20.6413848,8.19513686 C20.6442412,9.67509858 20.6440508,11.155092 20.6417974,12.6350538 C20.6413848,12.9046657 20.468922,13.0880463 20.2348563,13.086595 C19.9743848,13.0849677 19.7931625,12.8919706 19.7928451,12.6117583 C19.7920199,11.8717933 19.7925594,11.1317965 19.7926229,10.3917998" id="Fill-16" fill="#EB202F"></path>
                        <path d="M32.1541356,10.8503242 C32.1541356,10.4855308 32.1504857,10.120674 32.156262,9.75594408 C32.1581345,9.63975228 32.1174785,9.58728982 32.0021436,9.59205048 C31.9652009,9.59360563 31.9279091,9.59468471 31.8911886,9.59128878 C31.7934046,9.582307 31.6243061,9.59452602 31.6114523,9.55586948 C31.5702884,9.43183846 31.5813967,9.28841569 31.5861256,9.1529591 C31.587046,9.12680721 31.6484267,9.0854847 31.685306,9.08132706 C31.7793131,9.07069492 31.8754466,9.07310699 31.9703742,9.07770896 C32.1012288,9.0840565 32.1656564,9.04263877 32.1565159,8.89569312 C32.1446777,8.70609197 32.1580393,8.51506262 32.1519139,8.32495367 C32.1483911,8.21485551 32.1943155,8.15880669 32.2981614,8.13535251 C32.4167018,8.10859761 32.5347661,8.07866894 32.6514022,8.04455089 C32.7581679,8.01332097 32.8079644,8.03414092 32.8046954,8.15928276 C32.7983796,8.40229849 32.8115825,8.64588551 32.8023786,8.88867908 C32.7966658,9.0392111 32.8582687,9.0835487 32.9988351,9.07878804 C33.2153498,9.07145663 33.4323406,9.07970843 33.6490458,9.0760586 C33.7416564,9.07450345 33.7789165,9.10611422 33.7841533,9.20319991 C33.8051001,9.59198701 33.80802,9.59157442 33.4192329,9.59195527 C33.2606395,9.59208222 33.1020144,9.59519252 32.9434527,9.59389127 C32.8526828,9.5931613 32.8027911,9.63121483 32.8036798,9.72455547 C32.8100908,10.4007276 32.797967,11.0778202 32.8300539,11.7527863 C32.8525559,12.2262814 33.0328579,12.3545335 33.4932136,12.3188921 C33.7126482,12.3019124 33.7123943,12.3019124 33.7214713,12.5188715 C33.7230264,12.5557507 33.7239151,12.5934234 33.7319447,12.6291918 C33.75962,12.7521437 33.714362,12.8348522 33.5888076,12.8406602 C33.3372861,12.852308 33.0785602,12.887759 32.834751,12.845167 C32.4319676,12.7748045 32.1839056,12.4353378 32.1656564,11.9760612 C32.1507396,11.6013657 32.1626096,11.2256228 32.1626096,10.8503242 C32.1597849,10.8503242 32.1569602,10.8503242 32.1541356,10.8503242" id="Fill-18" fill="#000000"></path>
                        <path d="M27.1881628,10.0595916 C27.1881628,10.9055923 27.1847351,11.7516247 27.1912731,12.5975937 C27.1924474,12.7522516 27.1563298,12.8260101 26.9892942,12.8078244 C26.8345411,12.7909399 26.6272938,12.8443545 26.5378251,12.7628838 C26.458703,12.6908391 26.5047227,12.4755622 26.5045957,12.3235385 C26.5032627,10.7267185 26.5037071,9.12986673 26.503834,7.53301498 C26.5038658,7.32316516 26.5043418,7.32316516 26.7119065,7.32224477 C27.1881628,7.32011834 27.1881628,7.32011834 27.1881628,7.79123309 L27.1881628,10.0595916 Z" id="Fill-20" fill="#000000"></path>
                    </g>
                </g>
            </g>
        </g>
    </g>
</svg>