<svg xmlns="http://www.w3.org/2000/svg" width="16" height="16" viewBox="0 0 16 16"><defs><style>.a{fill:#d5740e;}</style></defs><path class="a" d="M8,.8A7.2,7.2,0,1,1,.8,8,7.2,7.2,0,0,1,8,.8M8,0a8,8,0,1,0,5.657,2.343A8,8,0,0,0,8,0Z"/><g transform="translate(3.495 1.836)"><circle class="a" cx="1" cy="1" r="1" transform="translate(3.505 9.764)"/><path class="a" d="M1.914,7.722a.588.588,0,0,1-.415-1L6.761,1.467a.583.583,0,0,1,.794.031.589.589,0,0,1,.031.8L2.358,7.581A.583.583,0,0,1,1.914,7.722Z" transform="translate(-1.875 4.525) rotate(-45)"/></g></svg>