<svg xmlns="http://www.w3.org/2000/svg" width="16" height="16" viewBox="0 0 16 16"><defs><style>.a,.b{fill:#016d38;}.b{fill-rule:evenodd;}</style></defs><path class="a" d="M8,.8A7.2,7.2,0,1,1,.8,8,7.2,7.2,0,0,1,8,.8M8,0a8,8,0,1,0,5.657,2.343A8,8,0,0,0,8,0Z"/><g transform="translate(3.619 4)"><path class="b" d="M.231,4.72,2.585,7.2a.5.5,0,0,0,.707.019l.031-.032L8.931.822A.405.405,0,0,0,8.914.269a.352.352,0,0,0-.5,0L8.4.286,2.962,6.555h0L.707,4.24A.33.33,0,0,0,.24,4.234l0,0A.346.346,0,0,0,.231,4.72Z"/></g></svg>