<?xml version="1.0" encoding="UTF-8"?>
<svg width="9px" height="13px" viewBox="0 0 9 13" version="1.1" xmlns="http://www.w3.org/2000/svg" xmlns:xlink="http://www.w3.org/1999/xlink">
    <title>Intersección_32-path</title>
    <g id="Page-1" stroke="none" stroke-width="1" fill="none" fill-rule="evenodd">
        <g id="004--Información-de-la-empresa-cliente-nuevo-con-seguro---002B" transform="translate(-37.000000, -370.000000)" fill="#E1111C" fill-rule="nonzero">
            <g id="Contenedor" transform="translate(16.000000, 152.000000)">
                <g id="Texto-informativo" transform="translate(16.000000, 192.000000)">
                    <g id="Lemotive" transform="translate(0.000000, 24.000000)">
                        <path d="M11.4063787,12.1429791 C11.6354472,10.4073458 11.9087894,5.33331726 10.7557472,4.56764552 C9.60270503,3.80197378 5.46407277,6.2667392 4.09351177,7.2367008 C3.5160282,7.64195872 3.00014287,7.14036899 3.00014287,6.60057872 C2.99506838,6.344193 3.12539961,6.09972953 3.3543328,5.93622147 C4.81729118,4.89816325 9.70665207,2.06301866 11.5045509,3.3120103 C13.3390237,4.49290533 13.0714563,10.4239547 12.8231384,12.2907986 C12.7634651,12.7741185 12.4246747,13 12.0916592,13 C11.7085951,13 11.3332308,12.704361 11.4063787,12.1479618 L11.4063787,12.1429791 Z" id="Intersección_32-path" transform="translate(8.000000, 8.000000) rotate(-300.000000) translate(-8.000000, -8.000000) "></path>
                    </g>
                </g>
            </g>
        </g>
    </g>
</svg>