<?xml version="1.0" encoding="UTF-8"?>
<svg width="17px" height="16px" viewBox="0 0 17 16" version="1.1" xmlns="http://www.w3.org/2000/svg" xmlns:xlink="http://www.w3.org/1999/xlink">
    <title>Capa_5</title>
    <g id="Page-1" stroke="none" stroke-width="1" fill="none" fill-rule="evenodd">
        <g id="002---Solicitar-Vehículo-móvil---004B" transform="translate(-41.000000, -396.000000)" fill="#e1111c" fill-rule="nonzero">
            <g id="Card" transform="translate(16.000000, 152.000000)">
                <g id="Helper-1" transform="translate(25.000000, 240.000000)">
                    <g id="04-iconos/02-16x16_/Helper" transform="translate(0.333333, 4.000000)">
                        <g id="Capa_5" transform="translate(-0.000000, 0.000000)">
                            <path d="M8,16 C3.58172202,16 0,12.4182781 0,8 C0,3.58172202 3.58172202,0 8,0 C12.4182781,0 16,3.58172202 16,8 C16,10.121732 15.1571454,12.1565633 13.6568543,13.6568543 C12.1565633,15.1571454 10.121732,16 8,16 Z M8.00000004,1.23000001 C4.26103226,1.23000001 1.23000001,4.26103226 1.23000001,8.00000004 C1.23000001,11.7389678 4.26103226,14.7700001 8.00000004,14.7700001 C11.7389678,14.7700001 14.7700001,11.7389678 14.7700001,8.00000004 C14.7644928,4.26331583 11.7366842,1.23550729 8.00000004,1.23000001 Z" id="Shape"></path>
                            <circle id="Oval" cx="8.00000004" cy="3.81000002" r="1.23000001"></circle>
                            <path d="M8.00000004,13.85 C7.32068979,13.85 6.77000003,13.2993103 6.77000003,12.6200001 L6.77000003,7.08000004 C6.77000003,6.64056335 7.00443669,6.2345071 7.38500003,6.01478875 C7.76556336,5.79507041 8.23443672,5.79507041 8.61500005,6.01478875 C8.99556339,6.2345071 9.23000005,6.64056335 9.23000005,7.08000004 L9.23000005,12.6200001 C9.23000005,13.2993103 8.67931029,13.85 8.00000004,13.85 L8.00000004,13.85 Z" id="Path"></path>
                        </g>
                    </g>
                </g>
            </g>
        </g>
    </g>
</svg>